<?xml version="1.0" encoding="UTF-8"?>
<svg id="Layer_1" data-name="Layer 1" xmlns="http://www.w3.org/2000/svg" viewBox="0 0 2176.7449 230.9507">
  <defs>
    <style>
      .cls-1 {
        fill: #faced8;
        stroke-width: 0px;
      }
    </style>
  </defs>
  <g id="Layer_3" data-name="Layer 3">
    <path class="cls-1" d="M0,0v144.8481c17.4067-5.7218,36.7117-6.5545,54.649-1.8302,18.4919,4.8848,35.2374,18.1584,53.1128,32.2816,6.4721,5.0971,13.1497,10.4066,20.1356,15.5037,35.1345,25.3793,76.3303,37.3787,119.1698,34.6178,37.7029-2.4424,76.1249-15.6099,114.4442-39.184,9.1432-5.6281,17.8755-11.8932,26.2996-17.7336,18.2864-12.8489,35.5455-25.0607,53.5237-29.0959,3.3901-.7433,6.7804-1.0619,10.376-1.0619,7.6022-1.2743,15.4099-.3185,23.0121,1.4867,12.3279,2.9733,24.3477,8.9199,35.6483,14.6541,12.8415,6.5838,23.6284,16.6718,34.6208,26.2288,12.1225,10.619,23.9368,21.7689,36.3674,32.0693,2.671,2.1238,5.4448,4.1413,8.2186,6.1589,2.3629,1.4866,4.8285,2.8671,7.294,4.3538,5.753,1.9114,11.7115,3.2919,17.7728,4.5662,11.4033,2.23,22.8067,3.1857,34.3127,3.0795,33.7992-.4247,67.0846-11.0437,96.4661-30.9012,7.4995-4.9909,14.4854-10.3004,21.2657-15.5036,17.9783-13.6985,31.1279-23.2556,44.6887-26.335,6.3694-2.761,12.6362-4.6724,19.7247-5.7343,10.1706-1.5928,18.2864-1.168,28.6625.6372,12.9443,2.23,25.5804,8.2828,37.1891,14.8665,15.4099,8.6013,29.3815,19.6451,45.2023,27.2907,16.9509,6.6899,34.5182,11.0437,52.3937,13.6984,15.5125,1.8052,31.2307,2.23,46.7434,1.4867,15.5126-4.1414,30.717-9.5571,45.5105-15.5037,51.5718-21.1317,99.8562-50.1215,148.8599-77.3059,24.4927-13.6483,49.3855-26.4695,74.9604-37.7803-.1606.0634-.3279.137-.4795.1891.1655-.0604.3259-.1298.4896-.1936.4886-.2161.9733-.4409,1.4624-.6559-.3038.1571-.6334.3138-.9625.4582,1.3833-.5684,2.7153-1.2173,4.0444-1.7325-.9246.5309-1.8491.9556-2.8765,1.3804,35.032-14.7604,71.399-26.1227,108.691-30.9012-1.3356.1061-2.5682.2124-3.8011.3185,1.6473-.2128,3.3455-.3861,5.0537-.5676-.4185.0517-.8379.1072-1.2526.1429,24.5431-2.3914,49.1841-2.0243,73.5381,1.9786-.4467-.087-.8938-.1823-1.3171-.2796.5262.1088,1.0482.2131,1.5736.321.4343.0718.8691.1358,1.303.21-.3805-.0436-.7828-.1134-1.1838-.1857,1.9984.4099,3.9874.8103,5.9094,1.1414-1.6436-.2124-3.1843-.5309-4.7256-.7433,19.6219,4.0352,38.7302,10.5127,57.0166,19.6451-.5137-.3186-1.0273-.5309-1.541-.8495l1.6445.85c25.0664,13.5922,48.4894,30.6885,72.8367,45.8734,14.2798,8.9199,28.9707,17.0965,44.0723,23.8926,2.8767,1.1681,5.8558,2.4423,8.7324,3.5043,7.0886,1.699,14.1772,3.0794,21.3684,4.1413,16.1292,1.9115,32.5663,2.6548,48.7982,2.3362,17.2592-3.0795,34.3126-6.1589,51.6744-8.7075,40.9902-6.0528,84.1381-6.5837,123.2792,9.5571,12.2252,5.097,24.2449,10.619,35.5455,17.946,8.6294,5.5219,16.6426,11.6808,24.6558,18.0522,14.6907,11.4684,29.3816,21.6627,45.9215,29.5207,2.9791,1.1681,6.1639,2.3362,9.1432,3.3981,8.4243.5309,16.7454.4247,25.0667-.4248,3.4932-.7433,6.9861-1.5928,10.2734-2.4423,22.9099-10.8314,43.5591-24.4236,62.9753-38.0159,14.6443-10.1755,27.416-18.0726,39.1909-22.5591V0H0Z"/>
  </g>
</svg>