<svg width="98" height="98" viewBox="0 0 98 98" fill="none" xmlns="http://www.w3.org/2000/svg">
<path d="M11.98 73.7287H5.59775L29.0001 19.9336H34.3191L57.7215 73.7287H51.3392L45.4127 59.5962H17.9065L11.98 73.7287ZM19.9582 54.581H43.2846L31.6594 26.3158L19.9582 54.581Z" fill="#E05F26"/>
<path d="M84.2344 51.9218V51.0099C84.2344 44.8815 81.195 41.816 75.1165 41.816C70.9623 41.816 67.3402 43.2101 64.2512 45.9952L61.2118 42.4241C64.555 38.9799 69.5697 37.2576 76.2562 37.2576C77.9776 37.2576 79.6372 37.5114 81.2332 38.0176C82.8286 38.5247 84.2085 39.2974 85.3742 40.3348C86.5389 41.3736 87.4758 42.6784 88.1853 44.2479C88.8938 45.8188 89.2491 47.6931 89.2491 49.8707V65.7511C89.2491 67.1187 89.3118 68.5504 89.4392 70.044C89.5651 71.5385 89.7053 72.7674 89.8572 73.7293H84.9944C84.8425 72.8683 84.7283 71.9319 84.6524 70.9181C84.5764 69.9053 84.5382 68.9174 84.5382 67.9546H84.3863C82.9163 70.336 81.1817 72.0456 79.1815 73.0834C77.1799 74.1212 74.7368 74.6411 71.8492 74.6411C70.2787 74.6411 68.7588 74.425 67.2902 73.9953C65.8202 73.5656 64.5168 72.9065 63.3771 72.0196C62.2373 71.1342 61.3254 70.044 60.6419 68.7523C59.9579 67.4607 59.6163 65.9539 59.6163 64.2316C59.6163 61.3445 60.3631 59.0778 61.8576 57.4314C63.3511 55.7859 65.2259 54.557 67.4803 53.7461C69.7339 52.9366 72.1402 52.4294 74.6985 52.2266C77.2558 52.0247 79.5995 51.9228 81.7266 51.9228H84.2339L84.2344 51.9218ZM81.6511 56.0251C80.3845 56.0251 78.8018 56.0892 76.9021 56.2152C75.0023 56.3421 73.179 56.6459 71.4312 57.1271C69.6834 57.6092 68.1889 58.356 66.9482 59.3683C65.7065 60.3821 65.0867 61.7747 65.0867 63.5475C65.0867 64.7132 65.3263 65.7128 65.8085 66.5488C66.2892 67.3847 66.935 68.0683 67.7459 68.6004C68.5554 69.1321 69.4555 69.5123 70.4434 69.7402C71.4312 69.968 72.4308 70.0822 73.4446 70.0822C75.2684 70.0822 76.8506 69.7784 78.1937 69.1703C79.5353 68.5627 80.6633 67.7395 81.5747 66.7012C82.4866 65.6634 83.1574 64.4477 83.5881 63.0541C84.0178 61.6615 84.2339 60.1798 84.2339 58.6093V56.026H81.6507L81.6511 56.0251Z" fill="#E05F26"/>
</svg>
