<svg width="80" height="80" viewBox="0 0 80 80" fill="none" xmlns="http://www.w3.org/2000/svg">
<mask id="mask0_183_410" style="mask-type:luminance" maskUnits="userSpaceOnUse" x="23" y="4" width="31" height="71">
<path d="M53.52 4.3999H23.2V74.7999H53.52V4.3999Z" fill="white"/>
</mask>
<g mask="url(#mask0_183_410)">
<path d="M32.56 38.48H23.2V31.36H32.56V21.68C32.56 15.84 33.68 11.52 35.92 8.71998C38.16 5.83998 42 4.47998 47.44 4.47998C48.32 4.47998 49.28 4.47998 50.32 4.55998C51.44 4.55998 52.48 4.79998 53.6 5.11998L52.72 12.48C52 12.16 51.2 12 50.4 11.84C49.6 11.68 48.8 11.68 48 11.68C46.72 11.68 45.52 11.84 44.32 12.4C43.44 12.8 42.64 13.52 42.16 14.4C41.6 15.36 41.28 16.4 41.12 17.44C40.96 18.8 40.88 20.16 40.88 21.52V31.52H50.72V38.64H40.8V74.96H32.56V38.64V38.48Z" fill="#E05F26"/>
</g>
</svg>
