<?xml version="1.0" encoding="UTF-8"?>
<svg id="Layer_1" data-name="Layer 1" xmlns="http://www.w3.org/2000/svg" version="1.1" viewBox="0 0 2000 2000">
  <defs>
    <style>
      .cls-1 {
        fill: #e05f26;
      }

      .cls-1, .cls-2 {
        stroke-width: 0px;
      }

      .cls-2 {
        fill: #db603a;
      }
    </style>
  </defs>
  <path class="cls-2" d="M-450.71,273.11c7.3,2.07,14.46,4.51,21.51,7.31-5.5-2.2-11.01-4.4-16.51-6.6,17.58,7.12,34.11,16.46,49.38,27.71-4.7-3.48-9.39-6.97-14.09-10.45,15.99,11.92,30.36,25.78,42.89,41.3-3.66-4.56-7.33-9.11-10.99-13.67,12.12,15.21,22.33,31.79,30.3,49.53-2.41-5.42-4.82-10.83-7.23-16.25,6.99,15.81,12.36,32.45,15.09,49.54-.93-6.06-1.87-12.12-2.8-18.18,1.28,8.66,1.77,17.35.88,26.06.7-6.09,1.4-12.18,2.1-18.28-.67,5.47-1.88,10.75-3.85,15.9,2.2-5.5,4.4-11.01,6.6-16.51-1.73,4.17-3.88,8.03-6.56,11.65,3.48-4.7,6.97-9.39,10.45-14.09-2.44,3.1-5.14,5.88-8.18,8.38,4.56-3.66,9.11-7.33,13.67-10.99-3.68,2.88-7.63,5.21-11.9,7.12,5.42-2.41,10.83-4.82,16.25-7.23-6.03,2.56-12.3,4.16-18.76,5.18,6.06-.93,12.12-1.87,18.18-2.8-16.42,2.36-33.08,1.11-49.51-.43-20.24-1.9-40.37-3.21-60.72-2.48-26.52.95-53.04,4.72-79.05,9.82-20.65,4.05-40.98,9.77-60.7,17.12-13.4,5-26.73,10.6-39.35,17.33-11.97,6.39-22.44,14.95-32.76,23.72-2.89,2.46-5.62,5.11-8.09,8-5.96,7-11.88,14.51-16.43,22.54-9.59,16.96-13.73,35.17-14.32,54.49-.07,2.25.1,4.48.34,6.72.86,7.92,1.96,16.18,3.91,23.93,2.54,10.06,7.53,19.65,11.92,28.93,4.48,9.47,10.32,18.28,15.78,27.19,12.04,19.63,24.08,39.27,36.12,58.9,13.4,21.85,26.79,43.69,40.19,65.54,11.52,18.78,23.19,37.41,32.2,57.56-2.41-5.42-4.82-10.83-7.23-16.25,5.91,13.44,10.71,27.35,13.08,41.87-.93-6.06-1.87-12.12-2.8-18.18,1.27,8.41,1.67,16.85.76,25.32.7-6.09,1.4-12.18,2.1-18.28-.74,5.92-2.11,11.65-4.23,17.23,2.2-5.5,4.4-11.01,6.6-16.51-2.12,5.26-4.82,10.13-8.13,14.73,3.48-4.7,6.97-9.39,10.45-14.09-3.47,4.61-7.39,8.75-11.85,12.42,4.56-3.66,9.11-7.33,13.67-10.99-4.55,3.6-9.44,6.57-14.71,9,5.42-2.41,10.83-4.82,16.25-7.23-7.69,3.39-15.75,5.5-24.04,6.81,6.06-.93,12.12-1.87,18.18-2.8-25.29,3.72-51.01.68-76.37-.66-13.1-.69-26.28-1.07-39.38.04-18.49,1.57-37.56,4.49-54.96,11.26-17.3,6.73-34.62,14.58-49.51,25.85-14.92,11.3-29.25,23-40.61,37.95-7.3,9.6-14.8,19.2-20.62,29.8-5.79,10.55-10.08,22.01-14.25,33.25-6.81,18.33-9.19,38.68-10.1,58.04-.37,7.94-.06,15.91.93,23.8,1.67,13.37,3.52,27.01,7.33,40,3.74,12.79,9.44,25.09,15.21,37.03,3.57,7.4,7.85,14.39,12.73,21,4.46,7.91,10.47,14.21,18.03,18.9,6.74,5.93,14.59,9.87,23.56,11.82,9.17,2.68,18.29,2.91,27.37.7,9.12-.59,17.56-3.47,25.34-8.63,14.46-9.72,27.07-24.03,30.72-41.59,3.56-17.16,2.9-38.03-7.94-52.7-5.8-7.86-10.67-16.27-14.66-25.18,2.41,5.42,4.82,10.83,7.23,16.25-4.71-10.86-8-22.17-9.92-33.85.93,6.06,1.87,12.12,2.8,18.18-1.87-12.21-2.19-24.51-.92-36.8-.7,6.09-1.4,12.18-2.1,18.28,1.35-11.75,4.14-23.19,8.45-34.21-2.2,5.5-4.4,11.01-6.6,16.51,4.2-10.34,9.67-20.02,16.29-29.01-3.48,4.7-6.97,9.39-10.45,14.09,6.97-9.25,14.99-17.55,23.96-24.87-4.56,3.66-9.11,7.33-13.67,10.99,9.43-7.53,19.68-13.82,30.68-18.79-5.42,2.41-10.83,4.82-16.25,7.23,10.6-4.65,21.64-7.97,33.07-9.81-6.06.93-12.12,1.87-18.18,2.8,32.07-4.79,64.55.89,96.72,1.19,7.86.07,15.75-.16,23.57-1.04,12.67-1.42,25.87-3.01,38.14-6.81,23.39-7.24,47.18-20.77,63.06-39.75,5.85-6.99,11.55-14.41,16.3-22.21,4.98-8.19,8.2-17.6,11.53-26.48,4.7-12.53,5.86-26.44,6.69-39.63.87-13.84-1.92-28.06-4.29-41.53-1.48-8.38-3.81-16.6-6.67-24.61-15.01-42.14-39.56-79.25-62.78-117.11-12.89-21.02-25.77-42.04-38.66-63.05-6.61-10.79-13.23-21.57-19.84-32.36-6.09-9.92-12.56-19.72-17.36-30.35,2.41,5.42,4.82,10.83,7.23,16.25-2-4.68-3.57-9.43-4.49-14.45.93,6.06,1.87,12.12,2.8,18.18-.61-4.14-.74-8.2-.28-12.35-.7,6.09-1.4,12.18-2.1,18.28.49-3.44,1.34-6.72,2.56-9.97-2.2,5.5-4.4,11.01-6.6,16.51,1.64-3.99,3.74-7.66,6.28-11.15-3.48,4.7-6.97,9.39-10.45,14.09,3.53-4.63,7.62-8.68,12.11-12.38-4.56,3.66-9.11,7.33-13.67,10.99,8.41-6.7,17.78-11.93,27.57-16.3-5.42,2.41-10.83,4.82-16.25,7.23,28.45-12.42,59.13-20.38,89.74-25.14-6.06.93-12.12,1.87-18.18,2.8,20.82-3.14,41.86-4.68,62.91-4.46,18.31.19,36.39,2.4,54.62,3.72,21.71,1.57,43.66.34,64.82-5.23,30.66-8.06,56.12-28.15,72.72-54.86,5.04-8.1,8.25-17.65,11.36-26.54,1.49-4.25,2.39-8.62,2.98-13.07,2.01-14.95,3.54-28.71,1.54-43.56-2.99-22.16-7.3-43.36-15.88-64.04-8.47-20.4-17.76-40.32-30.41-58.48-12.2-17.51-26.01-34.46-41.51-49.2-34.69-32.99-77.18-57.29-123.23-70.35-9.17-2.68-18.29-2.91-27.37-.7-9.12.59-17.56,3.47-25.34,8.63-14.06,8.6-27.31,25.17-30.72,41.59-3.66,17.63-2.41,37.32,7.94,52.7,10.13,15.07,23.89,25.7,41.59,30.72h0Z"/>
  <path class="cls-1" d="M1438.97,495.63s-.03.03-.04.05c-.2-.17-.4-.35-.59-.52l.63.47Z"/>
  <path class="cls-1" d="M785.76,1783.97h-38.18c-10.92,0-21.44-1.68-31.33-4.8,22.76,3.23,46.02,4.8,69.51,4.8Z"/>
  <path class="cls-1" d="M1417.83,1482.56c-137.69,51.8-263.78,31.1-374.79-68.74-30.5-27.44-61.66-54.33-94.09-79.43-67.23-52.03-143.11-68.52-225.86-48.51-65.56,15.84-106.43,59.75-110.66,116-5.58,74.39,28.72,134.67,92.43,160.52,14.97,6.08,30.97,10.21,46.87,13.28h79.75c57.52,0,104.14,46.63,104.14,104.15,0,28.76-11.66,54.79-30.5,73.64-18.84,18.85-44.88,30.5-73.64,30.5h-45.72c-23.49,0-46.75-1.57-69.51-4.8-145.45-20.56-270.24-108.27-302.42-281.39-22.46-120.77,4.75-229.53,92.24-318.7,64.87-66.14,147.34-94.14,238.02-102.24,127.14-11.37,233.22,33.71,326.02,117.78,29.1,26.36,60.16,50.88,92.28,73.48,41.44,29.17,88.65,41.32,139.25,34.17,80.81-11.42,134.65-73.36,140.02-157.21,4.1-64.13-21.44-113.49-71.57-151.46-44.57-33.77-96.65-51.64-148.24-71.22-50.78-19.27-102.53-38.08-149.63-64.59-176.44-99.33-215.55-271.06-162.25-432.04,39.96-120.67,120.61-203.03,246.95-233.23,91.07-21.77,178.45-5.52,258.79,40.23,39.38,22.43,76.77,48.36,115.09,74.58,7.23,3.21,14.21,7.3,20.79,12.29l66.83,50.72c45.82,34.77,54.77,100.1,20,145.92-20.49,26.99-51.58,41.19-83.04,41.19-21.94,0-44.06-6.91-62.88-21.19l-53.53-40.63-.63-.47c-11.03-9.76-21.49-19.34-31.91-28.58-7.61-6.76-15.2-13.34-22.98-19.69-34.46-28.12-72.56-48.68-117.39-55.5-86.12-13.09-157.37,38.61-172.03,124.93-11.82,69.58,12.93,123.95,72.16,159.37,35.29,21.1,74.37,37.12,113.47,50.32,83.1,28.05,162.64,61.66,231.75,117.29,226.04,181.95,154.09,546.08-93.58,639.26Z"/>
  <path class="cls-1" d="M1438.34,495.16l-12.67-9.62c-7.37-5.6-13.8-11.98-19.24-18.96,10.42,9.24,20.88,18.82,31.91,28.58Z"/>
</svg>