<?xml version="1.0" encoding="UTF-8"?>
<svg id="Layer_1" data-name="Layer 1" xmlns="http://www.w3.org/2000/svg" version="1.1" viewBox="0 0 2000 2000">
  <defs>
    <style>
      .cls-1 {
        fill: #e05f26;
        stroke-width: 0px;
      }
    </style>
  </defs>
  <path class="cls-1" d="M1577.62,159.02c73.67.15,137.41,25.64,188.79,79.28,40.05,41.82,63.37,92.47,69.96,150.81,9.79,86.66-16.23,160.65-76.74,222.04-330.46,335.33-661.09,670.48-991.55,1005.8-10.75,10.91-22.9,18.38-37.19,23.62-123.16,45.2-246.18,90.8-369.26,136.25-15.52,5.73-30.88,12.08-46.72,16.7-10.76,3.14-22.25,5.32-33.4,5.27-40.65-.18-72.9-41.03-62.27-80.82,8.16-30.56,19.93-60.16,30.55-90.02,20.68-58.13,41.67-116.14,62.54-174.2,21.65-60.23,42.95-120.59,65.32-180.54,4.09-10.96,11.02-21.79,19.19-30.09,331.11-336.31,662.41-672.43,993.97-1008.28,51.32-51.98,114.58-75.77,186.8-75.82ZM755.22,1545.02c292.55-296.04,583.19-590.16,872.56-882.98-43.08-43.66-85.57-86.71-125.9-127.57-288.93,293-579.29,587.44-869.57,881.79,1.29.49,4.36,1.9,7.56,2.85,21.86,6.44,43.7,12.96,65.64,19.11,14.55,4.08,23.53,13.17,27.2,28.04,2.63,10.63,5.71,21.15,8.74,31.68,4.26,14.84,8.66,29.64,13.77,47.09ZM1343.72,373.11c-290.25,294.3-580.92,589.02-870.9,883.04,20.7,5.3,43.73,11.79,67.04,16.97,17.8,3.96,27.52,14.14,31.1,32.18,3.59,18.08,8.58,35.88,13.18,53.74.89,3.47,2.85,6.65,2.98,6.95,289.75-293.82,579.33-587.47,867.89-880.07-36.61-37.11-74.76-75.78-111.3-112.81ZM1386.54,322.64c96.61,97.98,192.23,194.95,289.33,293.42,13.24-13.94,27.89-29.25,42.42-44.67,42.02-44.59,64.63-96.79,61.99-159.43-1.94-46.13-17.45-87.02-46.11-122.23-61.02-74.94-164.86-91.29-246.96-53.13-42.54,19.77-69.28,56.97-100.67,86.04ZM413.41,1693.37c3.72-1.01,5.95-1.44,8.06-2.21,91.05-33.14,182.1-66.27,273.1-99.56,3.97-1.45,7.4-4.42,11.39-6.86-7.78-27.39-15.94-53.23-22.21-79.53-2.75-11.55-9.11-15.63-19.16-18.43-30.72-8.54-61.16-18.11-91.91-26.5-17.87-4.88-28.03-15.27-31.88-33.98-5.92-28.77-13.33-57.23-20.36-85.76-1.45-5.9-2.18-12.25-10.25-14.21-26.99-6.53-53.83-13.69-81.15-20.72-2.33,5.67-4.2,9.82-5.76,14.08-19.33,53.04-38.65,106.09-57.88,159.17-12.95,35.75-25.68,71.58-38.7,107.3-2.92,8-4.6,15.02,2.54,22.14,28,27.92,55.66,56.19,84.18,85.08Z"/>
</svg>