<?xml version="1.0" encoding="UTF-8"?>
<svg id="Layer_1" data-name="Layer 1" xmlns="http://www.w3.org/2000/svg" version="1.1" viewBox="0 0 2000 2000">
  <defs>
    <style>
      .cls-1 {
        fill: #e05f26;
        stroke-width: 0px;
      }
    </style>
  </defs>
  <path class="cls-1" d="M244.49,1504.67H114.24L591.84,406.81h108.55l477.6,1097.86h-130.25l-120.95-288.42H365.44l-120.95,288.42ZM407.31,1113.9h476.05l-237.25-576.84-238.8,576.84Z"/>
  <path class="cls-1" d="M1719.07,1059.63v-18.61c0-125.07-62.03-187.63-186.08-187.63-84.78,0-158.7,28.45-221.74,85.29l-62.03-72.88c68.23-70.29,170.57-105.44,307.03-105.44,35.13,0,69,5.18,101.57,15.51,32.56,10.35,60.72,26.12,84.51,47.29,23.77,21.2,42.89,47.83,57.37,79.86,14.46,32.06,21.71,70.31,21.71,114.75v324.09c0,27.91,1.28,57.13,3.88,87.61,2.57,30.5,5.43,55.58,8.53,75.21h-99.24c-3.1-17.57-5.43-36.68-6.98-57.37-1.55-20.67-2.33-40.83-2.33-60.48h-3.1c-30,48.6-65.4,83.49-106.22,104.67-40.85,21.18-90.71,31.79-149.64,31.79-32.05,0-63.07-4.41-93.04-13.18-30-8.77-56.6-22.22-79.86-40.32-23.26-18.07-41.87-40.32-55.82-66.68-13.96-26.36-20.93-57.11-20.93-92.26,0-58.92,15.24-105.18,45.74-138.78,30.48-33.58,68.74-58.66,114.75-75.21,45.99-16.52,95.1-26.87,147.31-31.01,52.19-4.12,100.02-6.2,143.43-6.2h51.17ZM1666.35,1143.37c-25.85,0-58.15,1.31-96.92,3.88-38.77,2.59-75.98,8.79-111.65,18.61-35.67,9.84-66.17,25.08-91.49,45.74-25.34,20.69-37.99,49.11-37.99,85.29,0,23.79,4.89,44.19,14.73,61.25,9.81,17.06,22.99,31.01,39.54,41.87,16.52,10.85,34.89,18.61,55.05,23.26,20.16,4.65,40.56,6.98,61.25,6.98,37.22,0,69.51-6.2,96.92-18.61,27.38-12.4,50.4-29.2,69-50.39,18.61-21.18,32.3-45.99,41.09-74.43,8.77-28.42,13.18-58.66,13.18-90.71v-52.72h-52.72Z"/>
</svg>