<?xml version="1.0" encoding="UTF-8"?>
<svg id="Layer_1" data-name="Layer 1" xmlns="http://www.w3.org/2000/svg" version="1.1" viewBox="0 0 2000 2000">
  <defs>
    <style>
      .cls-1 {
        fill: #e05f26;
        stroke-width: 0px;
      }
    </style>
  </defs>
  <path class="cls-1" d="M513.95,1004.53c0-237.45-.02-474.9,0-712.35.01-93.45,61.11-154.18,155.12-154.19,206.93-.03,413.86-.03,620.79,0,94.78.01,155.34,60.75,155.34,155.85.02,474.9.03,949.8,0,1424.7,0,94.62-60.92,155.13-156.08,155.14-206.32.03-412.65-1.22-618.95.56-94.72.81-157.96-71.73-157.08-157.37,2.47-237.42.85-474.89.85-712.34ZM584.46,1005.99c0,237.45-.02,474.9.01,712.34,0,54.31,29.26,83.84,83.49,83.86,207.54.1,415.08.09,622.62,0,55.25-.02,84.11-29.34,84.11-85.13.02-474.29.02-948.57,0-1422.86,0-55.66-28.92-84.73-84.46-84.75-206.93-.06-413.86-.06-620.79,0-56.67.02-84.98,28.76-84.98,86.02-.01,236.84,0,473.68,0,710.52Z"/>
  <path class="cls-1" d="M979.65,310.16c26.79,0,53.58-.2,80.37.06,24.92.24,40.3,13.59,40.75,34.75.45,21.34-14.4,36.12-39.05,36.38-54.79.57-109.59.57-164.38,0-24.63-.26-39.46-15.12-38.93-36.49.53-21.14,15.9-34.4,40.87-34.63,26.79-.25,53.58-.06,80.37-.06Z"/>
</svg>