<?xml version="1.0" encoding="UTF-8"?>
<svg id="Layer_1" data-name="Layer 1" xmlns="http://www.w3.org/2000/svg" version="1.1" viewBox="0 0 2000 2000">
  <defs>
    <style>
      .cls-1 {
        fill: #e05f26;
        stroke-width: 0px;
      }
    </style>
  </defs>
  <path class="cls-1" d="M1700.25,1712.33c-45.14-3.64-86.61-6.99-128.08-10.31-27.99-2.24-56.06-3.81-83.96-6.9-11.75-1.3-17.5,3.21-23.21,12.65-32.11,53.07-64.8,105.78-97.35,158.58-3.73,6.04-7.78,11.89-13.18,20.1-91.23-180.51-181.45-359.01-271.87-537.89-64.87,53.83-105.07,53.82-164.83-.56-90.48,178.41-180.65,356.2-272,536.33-4.55-6.73-8.12-11.63-11.3-16.77-31.9-51.67-64.34-103.02-95.22-155.3-9.17-15.53-18.45-20.61-37-18.68-66.09,6.89-132.42,11.36-202.51,17.05,98.91-191.08,196.25-379.12,294.66-569.22-17.96-4.45-34.2-7.84-50.06-12.51-66.56-19.57-89.58-58.69-73.7-125.92,4.79-20.28,11.44-40.12,17.37-60.12,5.49-18.54,2.18-34.59-12.48-47.94-15.45-14.07-31.31-27.77-45.83-42.75-46.62-48.08-47.31-96.11-1.9-145.03,14.63-15.76,30.83-30.12,46.74-44.64,15.16-13.84,19.23-30.06,13.39-49.53-6.55-21.85-13.46-43.66-18.56-65.87-13.43-58.56,7.55-96,64.71-115.39,17.85-6.05,36.43-10.16,54.89-14.14,36.81-7.94,46.35-17.52,54.19-54.12,4.36-20.37,8.29-41.1,15.47-60.54,18.89-51.14,56.88-71.68,109.94-60.02,23.52,5.17,46.52,12.74,69.68,19.49,19.32,5.63,35.83,2.13,49.62-13.24,13.95-15.55,27.68-31.41,42.73-45.85,47.65-45.71,95.25-46.22,143.53-1.45,16.25,15.07,31.16,31.64,46.16,48,13.47,14.7,29.51,17.93,47.97,12.75,23.23-6.51,46.17-14.26,69.68-19.48,54.44-12.09,92.1,8.62,110.74,61.12,6.95,19.58,12.33,40.03,15.66,60.53,5.11,31.41,22.37,47.75,53.41,52.92,21.13,3.52,42.43,8.36,62.45,15.83,49.87,18.62,70.15,56.69,58.85,108.89-4.82,22.26-11.52,44.17-18.47,65.88-7.41,23.12-2.76,41.95,15.79,57.88,14.36,12.33,28.69,24.85,41.78,38.49,46.47,48.43,46.74,95.86,1,145-11.1,11.93-22.82,23.57-35.68,33.5-26.66,20.59-31.52,45.33-20.05,76.15,7.01,18.84,11.91,38.7,15.53,58.5,8.87,48.56-11.08,84.78-57.26,102.88-21.75,8.53-44.77,13.82-70.1,21.45,95.56,188.78,191.3,377.93,288.63,570.21ZM1466.67,515.04c-5.25-4.01-10.6-10.65-17.36-12.76-19.26-6.03-38.96-10.9-58.74-14.98-52.96-10.95-85.13-42.37-96.9-95.2-4.68-20.99-10.33-41.78-15.97-62.55-4.15-15.3-13.28-20.89-29.48-15.83-22.39,6.99-45.28,12.42-67.94,18.58-44.38,12.06-82.57,1.73-114.49-31.5-15.38-16.01-30.86-31.93-46.23-47.96-13.61-14.19-26.77-13.79-40.15.5-15.63,16.69-31.38,33.27-47.41,49.58-30.01,30.54-65.88,40.74-107.54,30.24-22.77-5.74-45.5-11.69-68.39-16.96-26.74-6.16-30.37-3.93-37.28,22.17-5.34,20.18-10.13,40.5-15.1,60.78-10.42,42.52-36.72,69.7-78.89,81.29-24.52,6.74-49.11,13.21-73.77,19.39-16.93,4.24-21.82,14.61-17.26,30.69,5.7,20.08,10.94,40.3,17,60.27,14.99,49.4,3.57,91.34-34.47,126.23-13.96,12.8-28.02,25.56-41.16,39.17-17.84,18.48-17.64,26.28.21,44.44,17.85,18.16,36.83,35.25,54.11,53.93,24.2,26.16,33.43,56.88,24.45,92.31-6.41,25.29-12.26,50.72-18.13,76.15-5.39,23.34-3.51,26.74,19.97,33.15,17.62,4.81,35.39,9.15,53.28,12.8,52.9,10.8,85.32,42.05,97.2,94.91,4.86,21.62,10.68,43.04,16.56,64.41,3.77,13.7,12.7,18.91,26.83,14.57,17.45-5.36,35.22-9.73,52.5-15.56,54.07-18.23,100.1-6.88,138.15,36.03,9.97,11.24,20.15,22.32,30.75,32.96,24.21,24.33,30.53,24.29,54.06.21,14.61-14.95,28.7-30.42,43.49-45.19,29.33-29.29,64.44-37.95,104.46-28.27,25.99,6.28,52.13,12,77.99,18.77,14.81,3.87,22.43-2.03,25.85-15.7,4.75-18.99,9.98-37.88,13.9-57.04,10.85-52.92,42.11-85.31,94.96-97.14,20.35-4.56,40.47-10.18,60.69-15.33,17.08-4.35,23.77-13.7,17.59-31.73-6.34-18.49-10.62-37.66-16.25-56.41-15.71-52.28-3.7-96.48,37.56-132.66,12.76-11.19,25.33-22.7,37.05-34.96,18.69-19.55,18.53-26.76-.12-45.68-10.54-10.69-21.52-21.01-32.88-30.84-44.15-38.2-59.04-84.03-39.61-140.51,7.18-20.87,10.71-43,16.91-68.75ZM428.25,1624.89c41.51-3.26,79.89-5.18,117.96-9.76,16.2-1.95,24.48,2.55,32.34,16.37,18.88,33.2,39.53,65.39,61.26,100.9,74.8-148.38,147.89-293.37,223.29-442.94-17.3,2.98-29.5,4.3-41.28,7.3-18.92,4.83-37.32,11.81-56.35,16.05-56.58,12.62-93.8-8.19-113.32-62.68-4.51-12.6-7.92-25.59-13.22-42.92-71.2,141.15-140.3,278.14-210.68,417.68ZM1137.98,1289.74c76.41,150.86,149.75,295.67,224.23,442.72,22.3-36.52,43.24-69.59,62.78-103.47,6.88-11.92,14.19-15.61,28-14.12,39.17,4.23,78.54,6.6,120.68,9.93-70.69-139.46-139.96-276.11-210.08-414.44-6.9,20.41-11.4,38.26-18.84,54.79-18.5,41.11-52.27,59.01-96.93,51.32-19.81-3.41-39.07-9.97-58.65-14.82-15.01-3.72-30.13-7.02-51.2-11.9Z"/>
  <path class="cls-1" d="M799.43,1003.13c7.98-47.54,17.03-98.31,24.51-149.31,1.16-7.88-2.48-19.1-7.99-24.88-32.46-34.04-65.88-67.18-99.5-100.09-12.91-12.64-19.13-26.76-12.83-44.02,6.02-16.5,19.61-22.68,36.59-24.92,45.94-6.07,91.71-13.4,137.62-19.72,12.6-1.74,20.49-6.65,26.2-19.04,19.39-42.06,40.53-83.31,60.5-125.11,7.89-16.51,18.15-28.6,38.17-28.26,19.1.33,28.93,12.23,36.45,27.94,19.73,41.19,40.65,81.84,59.41,123.46,6.68,14.82,16.53,19.34,31.06,21.29,44.64,5.99,89.1,13.29,133.74,19.32,17.68,2.39,31.72,9.04,37.39,26.69,5.66,17.61-1.79,31.32-14.69,43.58-34.59,32.85-69,65.9-102.56,99.78-5.21,5.26-8.67,15.82-7.6,23.14,6.79,46.49,14.99,92.78,22.93,139.1,3.1,18.09,4.09,35.59-12.83,48-16.75,12.28-33.28,6.97-49.55-1.68-40.9-21.78-81.98-43.23-122.61-65.5-9.58-5.25-16.93-5.73-26.86-.4-43.12,23.14-86.59,45.66-130.29,67.69-29.85,15.04-58-1.9-57.24-37.04ZM814.98,724.57c24.17,22.58,44.5,43.75,67.12,62.1,22.69,18.4,28.93,39.28,22.12,67.32-6.65,27.37-9.76,55.6-15.06,87.2,30.27-16.29,57.01-29.78,82.83-44.84,20.87-12.18,40.16-11.59,60.8.3,25.87,14.91,52.48,28.51,81.96,44.39-5.25-31.06-8.47-58.91-14.95-85.98-6.61-27.59-1.76-48.68,20.71-67.89,21.97-18.78,40.65-41.41,61.52-63.12-32.38-5.05-63.78-10.94-95.45-14.53-22.1-2.51-35.12-13.42-44-33.21-12.64-28.17-27.1-55.53-42.6-86.9-16.33,33.2-30.92,62.15-44.81,91.43-7.62,16.07-18.85,25.36-37.05,27.75-32.97,4.33-65.74,10.1-103.12,15.98Z"/>
</svg>