<svg width="80" height="80" viewBox="0 0 80 80" fill="none" xmlns="http://www.w3.org/2000/svg">
<g clip-path="url(#clip0_183_419)">
<path d="M61.68 75.2001H18.32C10.88 75.2001 4.79999 69.1201 4.79999 61.6801V18.32C4.79999 10.88 10.88 4.80005 18.32 4.80005H61.76C69.2 4.80005 75.28 10.88 75.28 18.32V61.7601C75.28 69.2001 69.2 75.2801 61.76 75.2801L61.68 75.2001ZM18.32 11.2C14.4 11.2 11.2 14.4 11.2 18.32V61.7601C11.2 65.6801 14.4 68.8801 18.32 68.8801H61.76C65.68 68.8801 68.88 65.6801 68.88 61.7601V18.32C68.88 14.4 65.68 11.2 61.76 11.2H18.32Z" fill="#E05F26"/>
<path d="M40 56.1601C31.12 56.1601 23.84 48.8801 23.84 40.0001C23.84 31.1201 31.12 23.8401 40 23.8401C48.88 23.8401 56.16 31.1201 56.16 40.0001C56.16 48.8801 48.88 56.1601 40 56.1601ZM40 30.2401C34.64 30.2401 30.24 34.6401 30.24 40.0001C30.24 45.3601 34.64 49.7601 40 49.7601C45.36 49.7601 49.76 45.3601 49.76 40.0001C49.76 34.6401 45.36 30.2401 40 30.2401Z" fill="#E05F26"/>
<path d="M61.6 22.3201C63.4557 22.3201 64.96 20.8158 64.96 18.9601C64.96 17.1044 63.4557 15.6001 61.6 15.6001C59.7443 15.6001 58.24 17.1044 58.24 18.9601C58.24 20.8158 59.7443 22.3201 61.6 22.3201Z" fill="#E05F26"/>
</g>
<defs>
<clipPath id="clip0_183_419">
<rect width="80" height="80" fill="white"/>
</clipPath>
</defs>
</svg>
