<svg width="80" height="80" viewBox="0 0 80 80" fill="none" xmlns="http://www.w3.org/2000/svg">
<path d="M10.56 11.36C10.56 9.60005 11.2 8.00005 12.48 6.72005C13.76 5.44005 15.28 4.80005 17.12 4.80005C18.96 4.80005 20.4 5.44005 21.76 6.72005C23.12 8.00005 23.68 9.52005 23.68 11.36C23.68 13.2 23.04 14.72 21.76 16C20.48 17.28 18.96 17.92 17.12 17.92C15.28 17.92 13.84 17.28 12.48 16C11.12 14.72 10.56 13.2 10.56 11.36ZM12.64 28.24H21.52V75.2001H12.64V28.24Z" fill="#E05F26"/>
<path d="M27.84 28.24H36.72V35.44H36.88C38 32.96 39.92 30.88 42.72 29.36C45.52 27.84 48.72 27.04 52.32 27.04C55.92 27.04 56.72 27.36 58.8 28.08C60.88 28.8 62.72 29.84 64.24 31.28C65.76 32.72 67.04 34.64 67.92 36.88C68.88 39.2 69.28 41.84 69.28 44.96V75.2H60.4V47.44C60.4 45.28 60.08 43.36 59.52 41.84C58.96 40.32 58.16 39.04 57.12 38.08C56.16 37.12 54.96 36.4 53.68 36C52.4 35.6 51.04 35.36 49.68 35.36C48.32 35.36 46.08 35.68 44.56 36.24C42.96 36.8 41.6 37.76 40.4 39.04C39.2 40.32 38.32 42 37.6 43.92C36.96 45.92 36.64 48.24 36.64 50.96V75.12H27.76V28.16L27.84 28.24Z" fill="#E05F26"/>
</svg>
