<?xml version="1.0" encoding="UTF-8"?>
<svg xmlns="http://www.w3.org/2000/svg" version="1.1" viewBox="0 0 131.3 19.9">
  <defs>
    <style>
      .cls-1 {
        fill: #e05f26;
      }
    </style>
  </defs>
  <g>
    <g id="Layer_1">
      <path class="cls-1" d="M16.9,12.6c-.7,0-1.3.2-1.9.2,0,0-.1.1-.1.2-.3,1.1-.6,2.1-.9,3.2-.2.7-.7,1.1-1.3,1.1-.6,0-1.1-.5-1.2-1.1,0-.2,0-.5,0-.8.2-.7.4-1.5.6-2.2-.3,0-.6.1-.9.1-.3,0-.6,0-.8,0-.6,0-.9-.6-.9-1.2s.5-1,1.1-1c.8,0,1.5-.2,2.3-.3,0,0,.1-.1.2-.2.7-2.1,1.4-4.2,2.1-6.3.2-.8.5-1.5.8-2.3.2-.7,1.1-1.1,1.8-.8.7.3,1,.8,1.1,1.5.3,2.4.5,4.8.8,7.2,0,0,.1.1.2.1.6,0,1.2-.1,1.8-.1.6,0,1,.4,1.1,1,0,.6-.2,1.1-.8,1.2,0,0-.2,0-.3,0-.6,0-1.1.1-1.7.2-.2,0-.2,0-.2.2,0,1.2,0,2.5,0,3.7s-.2,1-.8,1.3c-.5.2-1,.1-1.4-.2-.3-.3-.5-.6-.5-1.1,0-1.1,0-2.3,0-3.4v-.3h0ZM16.6,7.8h0c-.3.9-.6,1.8-.9,2.7.4,0,.7,0,1-.1,0,0,0-.1,0-.2,0-.8-.1-1.6-.2-2.5h0Z"/>
      <path class="cls-1" d="M63.5,12.6c-.7,0-1.3.2-1.9.2,0,0-.1,0-.1.2-.3,1.1-.6,2.1-.9,3.1-.2.8-.9,1.3-1.6,1.1-.7-.2-1.1-.9-1-1.7.2-.8.4-1.5.6-2.3-.3,0-.6.1-.9.1-.3,0-.6,0-.8,0-.6,0-.9-.6-.9-1.2s.5-1,1.1-1c.8,0,1.5-.2,2.3-.3,0,0,.1-.1.2-.2.6-1.9,1.2-3.7,1.8-5.6.3-1,.7-2,1.1-3.1.2-.6.8-.9,1.4-.8.8.1,1.3.7,1.4,1.6.3,2.4.5,4.8.8,7.2,0,0,.1.1.2.1.6,0,1.3-.1,1.9-.1.5,0,1,.4,1.1.9,0,.5-.2,1.1-.8,1.2-.1,0-.2,0-.4,0-.6,0-1.1.1-1.7.2-.2,0-.2,0-.2.2,0,1.2,0,2.5,0,3.7s-.2,1-.8,1.3c-.5.2-1,.1-1.4-.2-.3-.3-.5-.6-.5-1.1,0-1.1,0-2.3,0-3.4v-.3h0ZM63.2,7.8h0c-.3.9-.6,1.8-.9,2.7.4,0,.7,0,1-.1,0,0,0-.1,0-.2,0-.8-.1-1.6-.2-2.4h0Z"/>
      <path class="cls-1" d="M82.5,2.4c.8,0,1.6.1,2.5.5.7.3,1.1,1,.8,1.7-.3.7-1,1-1.7.7-.7-.3-1.4-.4-2.2-.3-1.3,0-2.3.8-3,1.9-.8,1.4-1.3,2.9-1.2,4.5,0,1.1.4,2.2,1.3,3,.8.7,1.7,1.1,2.8,1.2.3,0,.6,0,.9-.1,1.2-.4,2.1-1.3,2.6-2.5.3-.7.9-1,1.6-.8.7.2,1.1.8.9,1.5-.2.7-.5,1.3-1,1.9-1,1.4-2.4,2.3-4.1,2.6-1.1.2-2.2-.1-3.2-.5-3.8-1.4-4.8-5.3-4.2-8.1.3-1.4.6-2.7,1.4-3.9,1.3-2.2,3.2-3.3,5.9-3.3h0Z"/>
      <path class="cls-1" d="M25.2,11.3c0,1.5,0,2.9,0,4.3,0,.2,0,.3,0,.5-.1.5-.6.9-1.1.9-.5,0-1-.4-1-.9,0-.2,0-.3,0-.5,0-3.5.1-7,.2-10.5,0-.2,0-.5,0-.7,0-.5.4-.8.9-.9,1.4-.3,2.7-.5,4.1-.4.5,0,1,0,1.5.3,1.1.5,1.5,1.7.9,2.9-.5,1.1-1.3,2-2.3,2.8-.3.3-.7.5-1,.8,0,0,0,.2,0,.2,1.4,2.2,2.4,4.6,3.4,7,.3.7,0,1.3-.6,1.5-.6.2-1.2,0-1.5-.7-.9-2.1-1.8-4.2-2.9-6.2,0-.1-.2-.3-.2-.4,0,0,0,0,0,0h0ZM28.5,5.3c-1.1,0-2,.2-3,.3,0,0,0,.1,0,.2,0,.5,0,.9,0,1.4v1.4c1.2-.9,2.5-1.7,3.2-3.2Z"/>
      <path class="cls-1" d="M41.6,18c-1.8,0-3.4-.2-4.7-1-.9-.5-1.1-1.4-.8-2.1.4-.7,1.4-1,1.9-.4.9.9,2.1,1,3.3,1,.3,0,.6-.1.9-.2.4-.2.5-.4.2-.8-.3-.4-.6-.8-1-1.1-1.3-1-2.7-1.9-3.8-3-.9-.8-1.4-1.8-1.5-3,0-1.4.6-2.4,1.7-3.2.6-.5,1.4-.7,2.1-.8,1.1-.2,2.2-.2,3.2.3.6.3,1,1,.9,1.7-.2.9-1.2,1.4-2,.8-.9-.6-2.6-.3-3.2.6-.3.5-.3,1.1.2,1.6.8.8,1.6,1.5,2.5,2.1.8.6,1.6,1.1,2.3,1.8.9.8,1.4,1.9,1.2,3.2-.2,1.3-1.1,2-2.2,2.4-.5.2-1,.2-1.3.3h0Z"/>
      <path class="cls-1" d="M51.9,17.4c-1.8,0-3.4-.2-4.7-1-.9-.5-1.1-1.4-.8-2.1.4-.7,1.3-1,1.9-.5,1,.9,2.1,1.1,3.3,1,.3,0,.6-.1.9-.2.3-.2.4-.4.2-.7-.3-.4-.6-.8-1-1.1-1.3-1-2.7-1.9-3.9-3.1-.7-.7-1.3-1.6-1.4-2.6-.2-1.6.4-2.8,1.7-3.7.6-.5,1.4-.7,2.1-.8,1-.1,2-.2,3,.2.7.3,1.1.8,1.2,1.6,0,.5-.2.9-.6,1.1-.4.2-.9.3-1.3,0-.8-.5-1.6-.4-2.4-.1-.1,0-.2.1-.4.2-.8.5-1,1.4-.3,2,.8.8,1.6,1.5,2.4,2.1.8.6,1.6,1.2,2.3,1.8.7.6,1.1,1.3,1.2,2.2.3,1.9-.9,3-2.2,3.5-.5.2-1,.2-1.3.3h0Z"/>
      <path class="cls-1" d="M4,15.1c1.1-.2,2.2-.5,3.3-.7.7-.1,1.4-.2,2-.3.7,0,1.4.4,1.5,1.1.1.7-.4,1.3-1.1,1.5-2.2.4-4.5.9-6.8,1.3-.3,0-.7,0-1,0-.6-.2-1-.8-.9-1.5.6-3.6,1.1-7.2,1.7-10.7.1-.6.2-1.3.4-1.9.1-.8.8-1.3,1.5-1.2.8.1,1.2.8,1.1,1.6-.5,2.7-.9,5.3-1.4,7.9-.1.9-.3,1.8-.4,2.7v.2h0Z"/>
      <path class="cls-1" d="M32.3,15.6c.1-3.6.3-7.2.5-10.8,0-.4,0-.9,0-1.3,0-.7.5-1.1,1.2-1.1.6,0,1.1.5,1.1,1.1,0,1.2-.1,2.4-.2,3.6-.1,3.2-.3,6.4-.4,9.6,0,.7-.5,1.2-1.1,1.2s-1.1-.5-1.1-1.2v-1.2h0,0Z"/>
      <circle class="cls-1" cx="128.7" cy="16.4" r="1.7"/>
      <path class="cls-1" d="M94.4,17.4c-.2,0-.4,0-.5,0-3.6-.3-6.2-3.8-5.8-7.7.4-3.9,3.5-6.8,7.1-6.5,1.8.2,3.3,1.1,4.4,2.6,1.1,1.4,1.6,3.3,1.4,5.2-.3,3.7-3.2,6.5-6.6,6.5ZM94.6,5.5c-2.1,0-4,1.9-4.2,4.4-.2,2.6,1.4,4.9,3.6,5.1,2.2.2,4.3-1.7,4.5-4.4.1-1.3-.2-2.5-.9-3.5-.7-.9-1.7-1.5-2.7-1.6-.1,0-.2,0-.3,0Z"/>
      <path class="cls-1" d="M107.9,17.1c-.2,0-.4,0-.5,0-3.6-.3-6.2-3.8-5.8-7.7.4-3.9,3.6-6.9,7.1-6.5,3.6.3,6.2,3.8,5.8,7.7-.3,3.7-3.2,6.5-6.6,6.5ZM108.1,5.2c-2.1,0-4,1.9-4.2,4.4-.2,2.6,1.4,4.9,3.6,5.1,2.2.2,4.3-1.7,4.5-4.4.2-2.6-1.4-4.9-3.6-5.1-.1,0-.2,0-.3,0Z"/>
      <g>
        <path class="cls-1" d="M115.7,15.4c.2-3.9.3-7.8.5-11.7,0-.5,0-.9,0-1.4,0-.7.6-1.2,1.3-1.2.6,0,1.2.5,1.2,1.2,0,1.3-.1,2.6-.2,3.9-.2,3.5-.3,6.9-.5,10.4,0,.7-.5,1.3-1.2,1.3-.5,0-1-.4-1.1-.9s0-.7,0-1c0-.2,0-.4,0-.7Z"/>
        <path class="cls-1" d="M124.2,5.9c-.5-.5-1.2-.5-1.7-.1-.4.3-.7.6-1.1.9-1.7,1.5-3.5,3.1-5.2,4.6v3.3c1.6-1.4,3.3-2.9,4.9-4.3,1-.9,2-1.7,3-2.6.5-.5.5-1.2,0-1.7Z"/>
        <path class="cls-1" d="M125.1,16.2c-.3-.3-.7-.6-1.1-.9-2.5-2-5-4.1-7.5-6.1v3.1c1.3,1.1,2.7,2.2,4,3.2,1,.8,2,1.7,3.1,2.5.6.4,1.3.3,1.7-.2.4-.5.3-1.2-.2-1.7Z"/>
      </g>
    </g>
  </g>
</svg>