<svg width="81" height="162" viewBox="0 0 81 162" fill="none" xmlns="http://www.w3.org/2000/svg">
<path d="M7.88949 79.784C7.88949 59.2054 7.88949 38.643 7.88949 18.0645C7.88949 17.1943 7.93809 16.3241 8.27829 15.5023C8.60229 14.761 9.05589 14.1164 9.75249 13.6813C11.0971 12.8433 12.7009 13.1495 13.7377 14.4226C14.4829 15.3411 14.7745 16.4208 14.7745 17.5811C14.7745 18.9508 14.7745 20.3206 14.7745 21.6903C14.7745 61.6388 14.7745 101.587 14.7745 141.552C14.7745 142.599 14.6611 143.631 14.1427 144.565C13.4299 145.838 12.1825 146.547 10.8865 146.338C9.63909 146.128 8.84529 145.323 8.32689 144.227C7.97049 143.453 7.87329 142.631 7.87329 141.793C7.87329 139.199 7.87329 136.588 7.87329 133.994C7.87329 115.929 7.87329 97.8486 7.87329 79.784H7.88949Z" fill="#E05F26"/>
<path d="M73.1108 68.0522C73.1108 84.6021 73.1108 101.152 73.1108 117.702C73.1108 118.411 73.0784 119.12 72.9812 119.829C72.8678 120.602 72.479 121.263 71.9282 121.811C70.4054 123.358 68.024 123.036 66.8576 121.134C66.3716 120.345 66.1934 119.49 66.1934 118.588C66.1934 112.98 66.1934 107.388 66.1934 101.78C66.1934 73.9663 66.1934 46.1523 66.1934 18.3383C66.1934 17.6776 66.2258 17.0169 66.3068 16.3723C66.4202 15.5665 66.7928 14.8736 67.3598 14.2774C68.8826 12.6981 71.2802 13.0043 72.4304 14.9219C72.9164 15.7277 73.0946 16.614 73.0946 17.5325C73.0946 20.2076 73.0946 22.8826 73.0946 25.5416C73.0946 39.7064 73.0946 53.8713 73.0946 68.0522H73.1108Z" fill="#E05F26"/>
<path d="M40.5811 151.785C48.3733 151.785 56.1817 151.785 63.9739 151.785C64.7677 151.785 65.5615 151.752 66.3553 151.849C67.5541 151.994 68.5261 152.574 69.1579 153.622C70.1623 155.298 69.4009 157.425 67.5055 158.279C66.8575 158.569 66.1609 158.666 65.4481 158.666C57.0565 158.666 48.6649 158.666 40.2733 158.666C32.0923 158.666 23.9113 158.666 15.7303 158.666C14.8393 158.666 13.9807 158.553 13.2031 158.086C12.0367 157.376 11.3725 156.361 11.4859 154.975C11.5831 153.622 12.3931 152.719 13.5919 152.155C14.2561 151.849 14.9851 151.769 15.7141 151.769C20.4445 151.769 25.1587 151.769 29.8891 151.769C33.4531 151.769 37.0333 151.769 40.5973 151.769L40.5811 151.785Z" fill="#E05F26"/>
<path d="M40.5488 9.36245C32.2706 9.36245 24.0086 9.36245 15.7304 9.36245C14.9204 9.36245 14.1266 9.26577 13.3976 8.89513C12.053 8.20219 11.3402 6.94524 11.5022 5.55938C11.648 4.22185 12.7172 3.02936 14.1752 2.67484C14.7584 2.52981 15.3902 2.49758 15.9896 2.49758C31.9628 2.49758 47.936 2.49758 63.9092 2.49758C64.703 2.49758 65.4968 2.46535 66.2906 2.54592C67.5218 2.67484 68.5262 3.25497 69.1742 4.33466C70.1786 6.01059 69.401 8.13773 67.5218 8.9757C66.8738 9.26577 66.1772 9.36245 65.4644 9.36245C60.977 9.36245 56.5058 9.36245 52.0184 9.36245C48.1952 9.36245 44.372 9.36245 40.565 9.36245H40.5488Z" fill="#E05F26"/>
<path d="M49.896 38.5464C48.8268 38.6753 47.8062 38.8042 46.7856 38.9331C46.7046 38.9331 46.6236 39.0943 46.5912 39.191C46.089 40.8991 45.5706 42.6073 45.0846 44.3154C44.7768 45.3951 43.9668 46.0881 42.93 46.0558C41.9418 46.0236 41.0994 45.3307 40.9536 44.3477C40.8888 43.9448 40.9374 43.5097 41.0346 43.1068C41.3262 41.9305 41.6502 40.7702 41.9904 39.5777C41.4882 39.6583 40.986 39.755 40.5 39.8033C40.0464 39.8355 39.5928 39.8839 39.1554 39.8033C38.232 39.6583 37.6326 38.8203 37.6974 37.9179C37.7622 37.0155 38.4912 36.3386 39.4146 36.2258C40.6458 36.0969 41.877 35.9197 43.1082 35.7424C43.2216 35.7263 43.3512 35.5329 43.3998 35.404C44.5176 32.0199 45.6192 28.6197 46.737 25.2195C47.142 23.9786 47.5956 22.7539 48.033 21.5131C48.438 20.3367 49.7502 19.8049 50.8842 20.2884C51.9696 20.7557 52.5204 21.5614 52.65 22.7217C53.0712 26.5731 53.5248 30.4245 53.9946 34.2921C53.9946 34.3727 54.189 34.5016 54.27 34.4855C55.2744 34.421 56.2788 34.2921 57.267 34.2598C58.1904 34.2276 58.9194 34.9044 59.0328 35.7907C59.1624 36.6932 58.6278 37.4989 57.7206 37.7567C57.5586 37.8051 57.3804 37.8373 57.2184 37.8534C56.295 37.9501 55.3716 38.0307 54.4644 38.1113C54.2214 38.1274 54.1242 38.1918 54.1404 38.4658C54.1728 40.464 54.1728 42.4461 54.1728 44.4444C54.1728 45.379 53.8002 46.1203 52.9092 46.5232C52.1316 46.8616 51.3702 46.7488 50.706 46.2009C50.1714 45.7658 49.977 45.1695 49.9608 44.4927C49.9608 42.6556 49.9284 40.8347 49.9122 38.9976C49.9122 38.8687 49.9122 38.7397 49.9122 38.5625L49.896 38.5464ZM49.3776 30.7307C49.3776 30.7307 49.3128 30.7307 49.2804 30.7307C48.8268 32.181 48.357 33.6314 47.8872 35.13C48.4866 35.0656 49.0374 35.0172 49.572 34.9528C49.6368 34.9528 49.7178 34.7755 49.7016 34.6949C49.5882 33.3735 49.4748 32.0682 49.3614 30.7468L49.3776 30.7307Z" fill="#E05F26"/>
<path d="M31.9301 132.785C30.8609 132.914 29.8403 133.043 28.8035 133.172C28.7387 133.172 28.6415 133.317 28.6253 133.414C28.1231 135.106 27.6047 136.782 27.1349 138.474C26.7785 139.779 25.7579 140.504 24.5591 140.246C23.3765 139.989 22.6961 138.86 23.0039 137.539C23.2955 136.298 23.6519 135.09 23.9921 133.817C23.4899 133.897 23.0039 133.994 22.5017 134.042C22.0481 134.074 21.5945 134.123 21.1571 134.042C20.2337 133.897 19.6343 133.059 19.6991 132.157C19.7639 131.254 20.5091 130.578 21.4163 130.481C22.6475 130.352 23.8787 130.175 25.1099 129.997C25.2233 129.981 25.3529 129.788 25.3853 129.643C26.3573 126.646 27.3131 123.648 28.3013 120.651C28.8521 119.007 29.4515 117.363 30.0185 115.72C30.3587 114.753 31.3469 114.205 32.3513 114.382C33.6473 114.608 34.4573 115.526 34.6193 116.977C35.0729 120.828 35.5103 124.68 35.9639 128.531C35.9639 128.612 36.1421 128.724 36.2231 128.724C37.2437 128.66 38.2643 128.531 39.2849 128.499C40.1597 128.466 40.8887 129.143 41.0183 129.997C41.1479 130.868 40.6457 131.689 39.8033 131.963C39.6089 132.028 39.4145 132.06 39.2201 132.092C38.2967 132.189 37.3733 132.27 36.4661 132.35C36.2069 132.366 36.1421 132.447 36.1421 132.705C36.1583 134.703 36.1745 136.685 36.1745 138.683C36.1745 139.618 35.8019 140.359 34.9109 140.746C34.1171 141.084 33.3719 140.972 32.7077 140.407C32.1731 139.972 31.9787 139.376 31.9625 138.699C31.9625 136.862 31.9301 135.041 31.9139 133.204C31.9139 133.075 31.9139 132.946 31.9139 132.769L31.9301 132.785ZM31.4117 124.986C31.4117 124.986 31.3469 124.986 31.3145 124.986C30.8609 126.436 30.3911 127.886 29.9213 129.385C30.5207 129.321 31.0715 129.272 31.6061 129.208C31.6709 129.208 31.7519 129.03 31.7357 128.95C31.6223 127.629 31.5089 126.323 31.3955 125.002L31.4117 124.986Z" fill="#E05F26"/>
<path d="M54.0918 115.462C55.3068 115.381 56.7 115.688 58.0446 116.268C59.1948 116.767 59.7456 117.863 59.3406 118.943C58.9356 120.022 57.8016 120.586 56.619 120.119C55.485 119.684 54.3672 119.523 53.1684 119.603C51.0786 119.748 49.5558 120.844 48.4866 122.552C47.142 124.728 46.4454 127.145 46.5588 129.691C46.6398 131.48 47.1582 133.204 48.6 134.461C49.8474 135.541 51.354 136.137 52.9902 136.331C53.4438 136.379 53.9622 136.266 54.3996 136.105C56.3436 135.396 57.753 134.107 58.482 132.141C58.887 131.077 59.9076 130.529 60.9606 130.819C61.9974 131.109 62.7588 132.157 62.4024 133.204C62.0622 134.268 61.5438 135.315 60.8796 136.234C59.2758 138.458 57.0564 139.844 54.3672 140.391C52.5852 140.762 50.9328 140.214 49.2804 139.618C43.3188 137.475 41.6988 131.319 42.5898 126.839C43.011 124.68 43.6104 122.585 44.7606 120.667C46.8018 117.267 49.815 115.526 54.0432 115.462H54.0918Z" fill="#E05F26"/>
<path d="M31.3145 67.1016C31.2659 69.4382 31.2173 71.7749 31.1687 74.1115C31.1687 74.3855 31.1687 74.6594 31.1039 74.9173C30.9095 75.7713 30.1643 76.3192 29.3057 76.3031C28.4633 76.2709 27.7667 75.6746 27.6047 74.8206C27.5561 74.5627 27.5399 74.3049 27.5561 74.0471C27.6695 68.423 27.7991 62.8151 27.9125 57.191C27.9125 56.8043 27.8963 56.4175 27.9611 56.063C28.1069 55.2895 28.5929 54.7899 29.3543 54.6127C31.5413 54.1131 33.7607 53.8231 36.0125 53.9359C36.8225 53.9842 37.6649 54.097 38.4101 54.4032C40.1921 55.1445 40.7591 57.0944 39.8519 59.0281C38.9933 60.8491 37.7297 62.3316 36.1583 63.5886C35.6399 64.0076 35.0891 64.3782 34.5869 64.7972C34.5059 64.8617 34.4573 65.0873 34.5059 65.1517C36.7253 68.6809 38.3129 72.5323 39.9329 76.3515C40.3865 77.415 39.9329 78.4786 38.9609 78.8492C37.9727 79.2199 37.0007 78.7364 36.5471 77.6568C35.0891 74.2727 33.6797 70.8725 31.8005 67.6978C31.6709 67.4884 31.5413 67.2789 31.3955 67.0694C31.3631 67.0694 31.3307 67.0694 31.2983 67.0855L31.3145 67.1016ZM36.5957 57.4005C34.8785 57.5456 33.2747 57.6906 31.6709 57.8356C31.6061 57.8356 31.5251 58.0129 31.5251 58.0935C31.4927 58.8186 31.4927 59.5438 31.4765 60.2851C31.4765 61.0264 31.4765 61.7676 31.4765 62.5573C33.4367 61.1392 35.4617 59.85 36.5957 57.4005Z" fill="#E05F26"/>
<path d="M34.4411 109.097C31.4603 109.161 28.9979 108.807 26.7623 107.469C25.3691 106.631 24.9155 105.262 25.5473 104.053C26.1629 102.893 27.7343 102.474 28.6415 103.344C30.1643 104.794 31.9949 105.004 33.9227 104.907C34.4249 104.875 34.9595 104.73 35.4293 104.536C36.0287 104.279 36.2069 103.827 35.8181 103.296C35.3483 102.651 34.7975 102.022 34.1657 101.555C32.0111 100.008 29.8403 98.4933 27.9449 96.6401C26.5679 95.2865 25.6445 93.7395 25.5797 91.7413C25.4987 89.4691 26.5679 87.8093 28.3337 86.504C29.3543 85.7466 30.5369 85.3115 31.8005 85.1342C33.5663 84.8925 35.3321 84.7475 36.9845 85.6499C38.0213 86.2139 38.6207 87.3097 38.4425 88.341C38.1833 89.8558 36.4499 90.5488 35.2025 89.6624C33.8255 88.6794 31.0229 89.179 30.0671 90.5649C29.5487 91.3223 29.5973 92.3536 30.3911 93.111C31.6547 94.3196 32.9993 95.4476 34.3601 96.5596C35.5913 97.5587 36.9845 98.3966 38.1509 99.4602C39.6251 100.83 40.4513 102.57 40.1273 104.633C39.7871 106.696 38.4101 107.904 36.5309 108.581C35.7209 108.871 34.8623 108.968 34.4249 109.065L34.4411 109.097Z" fill="#E05F26"/>
<path d="M51.0946 108.13C48.1138 108.178 45.6514 107.84 43.4158 106.502C42.0388 105.68 41.5852 104.31 42.2008 103.102C42.8002 101.942 44.3716 101.49 45.295 102.361C46.834 103.827 48.697 104.053 50.6572 103.94C51.1594 103.908 51.6778 103.746 52.1476 103.537C52.6984 103.295 52.8604 102.86 52.504 102.377C52.018 101.732 51.4834 101.071 50.8354 100.604C48.6808 99.0571 46.4938 97.5423 44.5984 95.6569C43.3996 94.4805 42.5248 93.143 42.298 91.4509C41.9578 88.9048 42.9946 87.0033 45.0034 85.5207C46.024 84.7633 47.1904 84.3282 48.4378 84.1671C50.0578 83.9576 51.6778 83.7803 53.2492 84.4732C54.367 84.9567 55.096 85.7302 55.1284 86.9871C55.1608 87.7768 54.7882 88.4052 54.1078 88.8081C53.4274 89.1949 52.6984 89.2271 52.0504 88.8081C50.7706 87.954 49.4422 88.1152 48.0976 88.5825C47.887 88.647 47.6926 88.7598 47.5144 88.8887C46.2346 89.7267 45.9754 91.0803 47.0446 92.1439C48.2758 93.3847 49.6528 94.4966 50.9974 95.5924C52.2286 96.5915 53.6056 97.4456 54.7882 98.4931C55.8412 99.4116 56.554 100.62 56.7646 102.054C57.2344 105.132 55.258 106.937 53.1682 107.646C52.3582 107.92 51.4996 108.033 51.0622 108.13H51.0946Z" fill="#E05F26"/>
<path d="M28.9979 42.4943C30.8285 42.0914 32.6105 41.6725 34.4087 41.3179C35.4941 41.0923 36.6119 40.9473 37.7135 40.8184C38.8961 40.6895 39.9167 41.4952 40.0787 42.6071C40.2407 43.7351 39.4955 44.7504 38.3453 44.976C34.7003 45.685 31.0391 46.4263 27.3941 47.1031C26.8919 47.1998 26.3249 47.1837 25.8227 47.0709C24.7859 46.8131 24.1865 45.7817 24.3647 44.6859C25.2881 38.9168 26.1953 33.1478 27.1349 27.3948C27.2969 26.3635 27.5237 25.3482 27.7019 24.333C27.9449 23.0116 28.9655 22.2381 30.1481 22.4637C31.3631 22.6893 32.0921 23.7851 31.8653 25.1065C31.1201 29.3769 30.3749 33.6312 29.6459 37.9016C29.4029 39.3358 29.2247 40.77 29.0141 42.2042C29.0141 42.2848 29.0141 42.3654 29.0141 42.4943H28.9979Z" fill="#E05F26"/>
<path d="M45.9756 74.0469C46.2186 68.2295 46.4616 62.396 46.7046 56.5785C46.737 55.8856 46.7856 55.1927 46.8504 54.5159C46.9476 53.4684 47.7252 52.7594 48.7296 52.7916C49.7016 52.8238 50.4792 53.5973 50.463 54.6287C50.4144 56.5947 50.2848 58.5445 50.2038 60.4944C49.977 65.6673 49.734 70.8401 49.5072 76.0129C49.4586 77.1087 48.7134 77.8983 47.6928 77.8983C46.6722 77.8983 45.8946 77.1087 45.8784 76.0129C45.8784 75.3522 45.8784 74.6915 45.8784 74.0308C45.9108 74.0308 45.9594 74.0308 45.9918 74.0308L45.9756 74.0469Z" fill="#E05F26"/>
<path d="M68.9147 140.553C70.4178 140.553 71.6363 139.341 71.6363 137.845C71.6363 136.35 70.4178 135.138 68.9147 135.138C67.4116 135.138 66.1931 136.35 66.1931 137.845C66.1931 139.341 67.4116 140.553 68.9147 140.553Z" fill="#E05F26"/>
</svg>
