<svg width="79" height="79" viewBox="0 0 79 79" fill="none" xmlns="http://www.w3.org/2000/svg">
<path d="M67.1599 67.637C65.3768 67.4932 63.7388 67.3609 62.1007 67.2298C60.9951 67.1413 59.8863 67.0793 58.7843 66.9572C58.3202 66.9059 58.093 67.084 57.8675 67.4569C56.5992 69.5531 55.3079 71.6352 54.0222 73.7208C53.8748 73.9594 53.7149 74.1904 53.5016 74.5147C49.898 67.3846 46.3343 60.3338 42.7627 53.2681C40.2003 55.3944 38.6124 55.394 36.2519 53.246C32.678 60.2932 29.1162 67.3159 25.5079 74.431C25.3282 74.1652 25.1872 73.9716 25.0616 73.7686C23.8015 71.7276 22.5201 69.6993 21.3004 67.6342C20.9382 67.0208 20.5716 66.8201 19.8389 66.8964C17.2283 67.1685 14.6083 67.3451 11.8397 67.5698C15.7467 60.0222 19.5916 52.5946 23.4788 45.0857C22.7694 44.9099 22.1279 44.776 21.5014 44.5915C18.8723 43.8185 17.963 42.2733 18.5903 39.6177C18.7795 38.8166 19.0422 38.0329 19.2764 37.2429C19.4933 36.5106 19.3625 35.8766 18.7834 35.3493C18.1732 34.7935 17.5467 34.2524 16.9732 33.6607C15.1317 31.7615 15.1044 29.8643 16.8981 27.932C17.476 27.3095 18.1159 26.7423 18.7443 26.1687C19.3432 25.622 19.5039 24.9813 19.2732 24.2123C19.0145 23.3492 18.7416 22.4877 18.5401 21.6104C18.0096 19.2973 18.8383 17.8184 21.0962 17.0525C21.8012 16.8135 22.5351 16.6512 23.2643 16.494C24.7183 16.1803 25.0951 15.8019 25.4048 14.3562C25.577 13.5516 25.7323 12.7328 26.0159 11.9649C26.762 9.94488 28.2626 9.13355 30.3585 9.59412C31.2876 9.79833 32.1961 10.0973 33.1109 10.364C33.874 10.5864 34.5262 10.4481 35.0709 9.84099C35.6219 9.22677 36.1642 8.6003 36.7587 8.02992C38.6409 6.22437 40.5211 6.20423 42.4281 7.97264C43.07 8.56791 43.659 9.22242 44.2515 9.86864C44.7835 10.4493 45.4171 10.5769 46.1463 10.3723C47.0639 10.1151 47.97 9.809 48.8986 9.60281C51.049 9.12525 52.5366 9.9433 53.2729 12.017C53.5474 12.7905 53.7599 13.5982 53.8914 14.408C54.0933 15.6487 54.775 16.2941 56.0011 16.4983C56.8358 16.6374 57.6771 16.8285 58.4679 17.1236C60.4378 17.8591 61.2388 19.3629 60.7925 21.4248C60.6021 22.304 60.3374 23.1695 60.0629 24.027C59.7702 24.9403 59.9539 25.684 60.6866 26.3133C61.2538 26.8003 61.8199 27.2949 62.3369 27.8336C64.1725 29.7466 64.1832 31.6201 62.3764 33.5611C61.938 34.0324 61.475 34.4922 60.9671 34.8844C59.914 35.6977 59.722 36.6749 60.1751 37.8923C60.452 38.6365 60.6455 39.421 60.7885 40.2031C61.1389 42.1212 60.3509 43.5519 58.5267 44.2668C57.6676 44.6038 56.7583 44.8127 55.7578 45.1141C59.5324 52.5709 63.3142 60.0423 67.1587 67.6374L67.1599 67.637ZM57.9335 20.344C57.7261 20.1856 57.5148 19.9234 57.2477 19.84C56.487 19.6018 55.7088 19.4095 54.9275 19.2483C52.8356 18.8158 51.5649 17.5747 51.1 15.4879C50.9151 14.6588 50.6919 13.8376 50.4691 13.0172C50.3052 12.4128 49.9446 12.192 49.3047 12.3919C48.4203 12.668 47.5161 12.8825 46.6211 13.1258C44.8681 13.6022 43.3595 13.1941 42.0987 11.8816C41.4912 11.2492 40.8797 10.6203 40.2726 9.98714C39.735 9.42664 39.2152 9.44244 38.6867 10.0069C38.0693 10.6661 37.4472 11.3211 36.814 11.9653C35.6286 13.1716 34.2117 13.5745 32.5662 13.1598C31.6668 12.9331 30.7689 12.698 29.8648 12.4899C28.8085 12.2465 28.6651 12.3346 28.3922 13.3656C28.1813 14.1627 27.9921 14.9653 27.7958 15.7664C27.3842 17.4459 26.3453 18.5195 24.6796 18.9773C23.7111 19.2436 22.7398 19.4991 21.7657 19.7432C21.097 19.9107 20.9038 20.3203 21.0839 20.9555C21.3091 21.7487 21.516 22.5474 21.7554 23.3362C22.3475 25.2875 21.8964 26.9441 20.3938 28.3223C19.8424 28.8279 19.2871 29.3319 18.768 29.8695C18.0634 30.5994 18.0713 30.9075 18.7763 31.6248C19.4814 32.3422 20.2311 33.0172 20.9137 33.7551C21.8696 34.7884 22.2342 36.0018 21.8794 37.4013C21.6262 38.4003 21.3952 39.4048 21.1633 40.4093C20.9504 41.3312 21.0247 41.4655 21.9521 41.7187C22.6481 41.9087 23.35 42.0801 24.0567 42.2243C26.1462 42.6509 27.4268 43.8853 27.8961 45.9732C28.0881 46.8272 28.3179 47.6733 28.5502 48.5174C28.6991 49.0586 29.0519 49.2644 29.61 49.0929C30.2993 48.8812 31.0012 48.7086 31.6837 48.4783C33.8195 47.7582 35.6377 48.2066 37.1407 49.9015C37.5345 50.3455 37.9366 50.7831 38.3553 51.2034C39.3116 52.1645 39.5612 52.1629 40.4907 51.2117C41.0678 50.6212 41.6243 50.0101 42.2085 49.4267C43.367 48.2698 44.7539 47.9277 46.3347 48.31C47.3613 48.5581 48.3938 48.784 49.4153 49.0515C50.0003 49.2043 50.3013 48.9713 50.4364 48.4313C50.624 47.6812 50.8306 46.935 50.9854 46.1782C51.414 44.0879 52.6488 42.8085 54.7363 42.3412C55.5402 42.1611 56.3349 41.9391 57.1336 41.7357C57.8083 41.5638 58.0725 41.1945 57.8284 40.4823C57.578 39.752 57.4089 38.9948 57.1865 38.2541C56.566 36.1891 57.0404 34.4432 58.6701 33.0141C59.1742 32.5721 59.6707 32.1174 60.1336 31.6331C60.8719 30.8609 60.8655 30.5761 60.1289 29.8288C59.7125 29.4065 59.2788 28.9989 58.8301 28.6106C57.0862 27.1017 56.498 25.2914 57.2655 23.0605C57.5491 22.2361 57.6886 21.362 57.9335 20.3448V20.344ZM16.9159 64.1831C18.5555 64.0543 20.0715 63.9785 21.5753 63.7976C22.2152 63.7206 22.5423 63.8983 22.8527 64.4442C23.5985 65.7556 24.4142 67.0271 25.2725 68.4298C28.2271 62.5688 31.1141 56.8416 34.0924 50.9336C33.4091 51.0513 32.9272 51.1035 32.4619 51.222C31.7145 51.4128 30.9877 51.6885 30.2361 51.856C28.0012 52.3545 26.531 51.5325 25.7599 49.3801C25.5818 48.8824 25.4471 48.3693 25.2377 47.6848C22.4253 53.2602 19.6959 58.6713 16.9159 64.1831ZM44.9502 50.9447C47.9684 56.9037 50.8653 62.6237 53.8073 68.4321C54.6881 66.9896 55.5153 65.6833 56.2871 64.3451C56.5589 63.8742 56.8476 63.7285 57.3931 63.7873C58.9403 63.9544 60.4954 64.048 62.16 64.1796C59.3677 58.6709 56.6315 53.2732 53.8618 47.8092C53.5893 48.6154 53.4115 49.3205 53.1176 49.9734C52.3869 51.5972 51.053 52.3043 49.2889 52.0005C48.5064 51.8658 47.7456 51.6067 46.9722 51.4151C46.3793 51.2682 45.7821 51.1378 44.9498 50.9451L44.9502 50.9447Z" fill="#E05F26"/>
<path d="M31.5775 39.6237C31.8927 37.7458 32.2502 35.7404 32.5456 33.7259C32.5914 33.4146 32.4477 32.9715 32.23 32.7431C30.9479 31.3986 29.6278 30.0895 28.2998 28.7896C27.7898 28.2903 27.5441 27.7326 27.793 27.0508C28.0308 26.3991 28.5676 26.1549 29.2383 26.0665C31.0529 25.8267 32.8608 25.5372 34.6743 25.2875C35.172 25.2188 35.4836 25.0248 35.7092 24.5354C36.4751 22.8741 37.3101 21.2447 38.0989 19.5936C38.4106 18.9415 38.8159 18.4639 39.6066 18.4773C40.3611 18.4904 40.7494 18.9604 41.0464 19.581C41.8258 21.208 42.6521 22.8136 43.3931 24.4576C43.657 25.043 44.0461 25.2216 44.62 25.2986C46.3833 25.5352 48.1394 25.8235 49.9027 26.0617C50.6011 26.1561 51.1557 26.4188 51.3796 27.116C51.6032 27.8116 51.3089 28.3531 50.7994 28.8374C49.4331 30.135 48.0739 31.4404 46.7482 32.7787C46.5424 32.9865 46.4058 33.4036 46.448 33.6927C46.7163 35.5291 47.0401 37.3575 47.3538 39.1872C47.4762 39.9017 47.5153 40.593 46.847 41.0832C46.1854 41.5682 45.5324 41.3585 44.8898 41.0168C43.2742 40.1565 41.6516 39.3092 40.0467 38.4296C39.6683 38.2222 39.3779 38.2032 38.9857 38.4138C37.2825 39.3278 35.5654 40.2173 33.8393 41.0875C32.6602 41.6816 31.5483 41.0125 31.5783 39.6244L31.5775 39.6237ZM32.1917 28.6205C33.1464 29.5124 33.9495 30.3487 34.8429 31.0735C35.7392 31.8003 35.9857 32.625 35.7167 33.7326C35.454 34.8137 35.3312 35.9288 35.1218 37.177C36.3175 36.5336 37.3737 36.0007 38.3936 35.4058C39.218 34.9247 39.9799 34.948 40.7952 35.4177C41.8171 36.0066 42.8682 36.5438 44.0326 37.1711C43.8252 35.9442 43.6981 34.8442 43.4421 33.7749C43.181 32.6851 43.3726 31.852 44.2601 31.0932C45.128 30.3514 45.8658 29.4575 46.6902 28.6C45.4112 28.4005 44.1709 28.1679 42.9199 28.0261C42.047 27.9269 41.5327 27.496 41.1819 26.7143C40.6826 25.6015 40.1115 24.5208 39.4992 23.2817C38.8542 24.5931 38.2779 25.7366 37.7292 26.8932C37.4282 27.528 36.9846 27.8949 36.2657 27.9893C34.9634 28.1604 33.669 28.3883 32.1925 28.6205H32.1917Z" fill="#E05F26"/>
</svg>
