<svg width="85" height="85" viewBox="0 0 85 85" fill="none" xmlns="http://www.w3.org/2000/svg">
<path d="M67.0488 6.7583C70.1798 6.76468 72.8888 7.848 75.0724 10.1277C76.7745 11.9051 77.7656 14.0577 78.0457 16.5371C78.4618 20.2202 77.3559 23.3648 74.7843 25.9738C60.7397 40.2253 46.688 54.4692 32.6434 68.7203C32.1865 69.184 31.6702 69.5015 31.0628 69.7242C25.8285 71.6452 20.6002 73.5832 15.3693 75.5148C14.7097 75.7583 14.0569 76.0282 13.3837 76.2245C12.9264 76.358 12.4381 76.4507 11.9642 76.4485C10.2366 76.4409 8.86593 74.7048 9.3177 73.0137C9.6645 71.7149 10.1647 70.4569 10.6161 69.1878C11.495 66.7173 12.3871 64.2519 13.274 61.7843C14.1942 59.2246 15.0994 56.6592 16.0501 54.1114C16.224 53.6456 16.5185 53.1853 16.8657 52.8326C30.9379 38.5394 45.0181 24.2543 59.1094 9.98065C61.2905 7.7715 63.9791 6.76043 67.0484 6.7583H67.0488ZM32.0968 65.6633C44.5302 53.0816 56.8824 40.5815 69.1806 28.1367C67.3497 26.2811 65.5439 24.4515 63.8299 22.7149C51.5504 35.1674 39.2101 47.6811 26.8732 60.191C26.928 60.2118 27.0585 60.2718 27.1945 60.3121C28.1235 60.5858 29.0517 60.8629 29.9842 61.1243C30.6026 61.2977 30.9842 61.684 31.1402 62.316C31.2519 62.7678 31.3829 63.2149 31.5116 63.6624C31.6927 64.2931 31.8797 64.9221 32.0968 65.6637V65.6633ZM57.1081 15.8571C44.7725 28.3649 32.419 40.8905 20.0949 53.3863C20.9746 53.6116 21.9534 53.8874 22.9441 54.1076C23.7006 54.2758 24.1137 54.7085 24.2658 55.4752C24.4184 56.2436 24.6305 57.0001 24.826 57.7592C24.8638 57.9066 24.9471 58.0418 24.9526 58.0545C37.267 45.5672 49.5741 33.0871 61.8379 20.6516C60.282 19.0744 58.6606 17.4309 57.1077 15.8571H57.1081ZM58.9279 13.7122C63.0339 17.8763 67.0977 21.9975 71.2245 26.1825C71.7872 25.59 72.4098 24.9394 73.0273 24.284C74.8132 22.389 75.7741 20.1705 75.6619 17.5083C75.5794 15.5477 74.9203 13.8099 73.7022 12.3135C71.1089 9.12853 66.6957 8.43365 63.2064 10.0555C61.3985 10.8957 60.262 12.4767 58.9279 13.7122ZM17.5699 71.9682C17.728 71.9252 17.8228 71.907 17.9125 71.8743C21.7821 70.4658 25.6517 69.0578 29.5192 67.6429C29.688 67.5813 29.8337 67.4551 30.0033 67.3514C29.6727 66.1873 29.3259 65.0891 29.0594 63.9714C28.9425 63.4805 28.6722 63.3071 28.2451 63.1881C26.9395 62.8252 25.6458 62.4184 24.3389 62.0619C23.5794 61.8545 23.1476 61.4129 22.984 60.6177C22.7324 59.395 22.4175 58.1854 22.1187 56.9729C22.0571 56.7222 22.0261 56.4523 21.6831 56.369C20.536 56.0914 19.3953 55.7872 18.2342 55.4884C18.1352 55.7294 18.0557 55.9057 17.9894 56.0868C17.1679 58.341 16.3468 60.5956 15.5295 62.8515C14.9791 64.3709 14.4381 65.8937 13.8848 67.4118C13.7607 67.7518 13.6893 68.0501 13.9927 68.3527C15.1827 69.5393 16.3583 70.7408 17.5704 71.9686L17.5699 71.9682Z" fill="#E05F26"/>
</svg>
