<svg width="380" height="380" viewBox="0 0 380 380" fill="none" xmlns="http://www.w3.org/2000/svg">
<path d="M126.806 287.736C126.54 288.116 126.388 288.344 126.217 288.553C124.184 291.194 121.999 293.683 119.662 296.058C116.47 299.326 113.297 302.594 110.105 305.843C109.459 306.489 108.775 307.078 108.3 307.895C107.844 308.674 107.084 309.149 106.286 309.567C105.735 309.852 105.165 310.175 104.69 310.574C100.833 313.861 96.805 316.92 92.606 319.751C92.473 319.846 92.359 319.941 92.207 320.017C89.376 321.366 86.811 323.304 83.714 324.083C82.536 324.387 81.263 324.558 80.066 324.482C75.487 324.197 70.965 323.437 66.462 322.582C63.669 322.05 61.199 320.834 58.957 319.105C58.653 318.877 58.368 318.63 58.064 318.402C57.342 317.87 56.962 317.889 56.297 318.459C52.858 321.347 49.419 324.254 45.961 327.104C44.688 328.149 43.339 329.08 42.009 330.049C40.983 330.79 39.957 331.531 38.874 332.177C37.848 332.785 36.803 333.393 35.682 333.83C34.067 334.457 32.395 334.951 30.742 335.502C29.298 335.977 27.854 336.11 26.353 335.787C23.408 335.179 22.192 331.873 23.047 329.612C25.65 322.734 28.937 316.179 31.806 309.434C35.492 300.77 40.071 292.581 45.182 284.696C50.996 275.709 56.525 266.57 61.94 257.355C65.246 251.712 68.571 246.05 72.048 240.521C74.822 236.132 77.862 231.933 80.769 227.639C84.265 222.49 87.799 217.341 91.257 212.154C93.822 208.297 96.045 204.25 98.002 200.07C101.46 192.679 105.678 185.763 110.39 179.113C116.071 171.076 121.562 162.925 127.072 154.774C134.767 143.393 142.443 132.031 150.689 121.03C152.038 119.244 153.159 117.287 154.413 115.425C155.705 113.506 157.054 111.644 158.327 109.725C160.873 105.925 163.419 102.087 165.946 98.268C166.421 97.565 166.915 96.862 167.352 96.121C167.713 95.494 167.96 94.81 168.264 94.164C168.435 93.803 168.587 93.404 168.815 93.062C173.451 85.709 178.087 78.356 182.723 70.984C185.174 67.07 187.644 63.156 190.038 59.223C191.292 57.171 192.375 55.024 193.629 52.972C194.731 51.167 195.909 49.4 197.144 47.671C199.633 44.137 202.122 40.565 204.725 37.107C207.404 33.554 210.197 30.058 213.351 26.904C216.676 23.598 220.248 20.596 224.105 17.898C224.523 17.613 224.96 17.347 225.378 17.062C226.594 16.264 227.886 15.979 229.349 16.112C231.591 16.321 233.795 16.682 235.98 17.195C239.096 17.917 242.193 18.639 245.309 19.399C248.919 20.292 252.358 21.641 255.778 23.028C264.594 26.619 273.372 30.286 282.15 33.953C283.062 34.333 283.936 34.751 284.81 35.207C290.016 37.981 295.583 39.919 300.979 42.256C307.534 45.087 314.051 48.032 320.606 50.882C324.311 52.497 328.073 54.017 331.816 55.537C334.248 56.525 336.642 57.627 338.846 59.052C339.606 59.546 340.29 60.192 340.898 60.857C341.639 61.674 341.829 62.7 341.715 63.783C341.582 64.885 340.689 65.835 339.397 66.12C338.732 66.272 338.01 66.31 337.326 66.31C329.327 66.31 321.309 66.386 313.31 66.291C310.08 66.253 306.964 66.69 303.829 67.336C297.046 68.742 290.244 69.977 283.442 71.269C280.497 71.82 277.533 72.352 274.569 72.827C271.567 73.302 268.565 73.701 265.563 74.119C262.846 74.499 260.11 74.879 257.393 75.259C256.994 75.316 256.747 75.468 256.633 75.848C256.519 76.266 256.405 76.703 256.234 77.121C255.968 77.805 256.177 78.356 256.633 78.85C256.956 79.192 257.279 79.534 257.64 79.857C259.882 81.795 261.687 84.113 263.34 86.564C265.145 89.243 266.969 91.903 268.774 94.582C269.154 95.152 269.477 95.779 269.743 96.425C270.826 98.952 271.757 101.536 272.517 104.177C273.543 107.73 274.721 111.245 275.329 114.912C275.652 116.812 275.842 118.731 275.994 120.65C276.279 123.994 276.545 127.338 276.716 130.682C276.83 132.734 276.849 134.805 276.754 136.857C276.583 140.182 273.904 142.861 270.674 143.07C267.33 143.298 264.423 141.037 263.758 137.693C263.625 136.99 263.587 136.249 263.549 135.527C263.416 133.095 263.397 130.663 263.15 128.231C262.941 126.198 262.485 124.184 262.124 122.151C262.124 122.094 262.048 122.056 261.877 121.866C261.763 122.36 261.63 122.759 261.573 123.158C261.003 127.129 260.224 131.062 259.274 134.957C258.837 136.743 258.229 138.472 257.792 140.239C257.184 142.652 256.747 145.122 256.12 147.535C254.296 154.451 251.731 161.12 248.767 167.618C246.829 171.874 244.91 176.13 242.896 180.367C241.832 182.628 240.464 184.737 239.476 187.017C237.044 192.622 234.156 197.999 231.173 203.319C228.266 208.525 225.207 213.674 221.73 218.557C220.704 220.001 219.735 221.483 218.766 222.965C216.638 226.252 214.548 229.577 212.382 232.845C209.57 237.063 207.043 241.452 204.611 245.879C204.193 246.658 203.661 247.361 203.186 248.102C202.578 249.052 201.989 250.04 201.381 250.99C201.134 251.37 201.305 251.712 201.438 252.073C202.749 256.044 204.117 259.977 205.352 263.967C206.682 268.261 207.898 272.574 209.152 276.887C209.399 277.761 209.399 277.704 210.235 277.685C212.344 277.628 214.472 277.552 216.581 277.628C219.108 277.723 221.635 277.951 224.162 278.103C229.501 278.445 234.821 278.863 240.103 279.718C241.034 279.87 241.984 279.927 242.934 279.965C246.145 280.098 249.28 280.687 252.377 281.447C256.614 282.473 260.851 283.556 265.069 284.639C265.734 284.81 266.399 285.057 267.045 285.285C269.211 286.064 271.396 286.843 273.562 287.622C275.272 288.249 276.925 288.952 278.255 290.244C280.782 292.676 281.371 296.362 279.737 299.288C278.027 302.347 274.55 303.81 271.13 302.822C266.323 301.454 261.573 299.934 256.747 298.623C253.422 297.711 250.04 297.027 246.677 296.305C245.157 295.982 243.618 295.754 242.098 295.583C240.958 295.45 239.799 295.45 238.583 295.545C238.849 295.697 239.096 295.868 239.362 296.001C241.471 297.084 243.58 298.186 245.689 299.269C248.71 300.808 251.541 302.67 254.277 304.665C257.051 306.698 259.844 308.75 262.485 310.954C264.157 312.341 265.696 313.937 267.083 315.59C270.978 320.226 269.23 326.876 263.587 329.118C261.516 329.935 259.331 330.315 257.165 329.669C254.733 328.947 252.377 327.959 250.724 325.888C250.572 325.698 250.382 325.527 250.173 325.375C248.786 324.387 247.342 323.456 246.012 322.392C243.086 320.093 239.723 318.516 236.531 316.654C235.961 316.312 235.885 316.388 235.809 317.072C235.676 318.003 235.657 318.991 235.353 319.865C234.384 322.715 232.446 324.577 229.501 325.451C228.114 325.869 226.803 325.717 225.473 325.432C222.509 324.786 219.564 324.026 216.6 323.38C212.439 322.468 208.259 321.594 204.079 320.72C203.908 320.682 203.718 320.682 203.49 320.796C203.756 320.929 204.022 321.062 204.307 321.176C207.499 322.468 210.71 323.741 213.902 325.033C214.605 325.318 215.308 325.603 215.992 325.945C218.804 327.389 221.768 328.529 224.732 329.612C225.587 329.935 226.442 330.277 227.278 330.657C229.007 331.436 230.755 332.158 232.579 332.728C235.353 333.602 238.013 334.799 240.597 336.148C243.428 337.63 246.316 338.998 249.166 340.423C251.997 341.848 254.733 343.406 257.203 345.439C259.217 347.111 260.357 349.201 260.281 351.88C260.186 355.186 257.735 358.074 254.524 358.796C252.32 359.29 250.249 359.062 248.14 358.226C243.618 356.459 239.343 354.236 234.992 352.127C232.009 350.664 228.969 349.315 225.986 347.909C224.694 347.301 223.459 346.617 222.167 346.009C221.236 345.572 220.248 345.192 219.298 344.793C215.574 343.254 211.622 342.475 207.822 341.164C201.02 338.789 194.199 336.414 187.378 334.077C179.55 331.398 171.684 328.757 163.837 326.097C162.697 325.717 161.576 325.318 160.436 324.919C158.973 324.425 157.472 324.368 155.933 324.444C151.639 324.691 147.326 324.653 143.032 324.482C140.467 324.387 137.902 324.482 135.337 324.52C135.28 324.52 135.204 324.52 135.147 324.52C132.487 324.596 129.846 324.653 127.186 324.729C126.198 324.748 125.286 324.577 124.355 324.14C120.821 322.506 118.75 318.972 119.263 315.229C119.776 311.448 122.74 308.446 126.597 307.952C128.782 307.667 131.005 307.515 133.209 307.401C139.46 307.116 145.711 306.736 151.981 306.812C152.608 306.812 153.235 306.717 153.862 306.641C154.584 306.546 154.622 306.489 154.508 305.729C154.394 305.007 154.242 304.304 154.166 303.582C154.052 302.347 154.033 301.112 153.862 299.896C153.634 298.243 153.292 296.59 153.026 294.956C152.589 292.277 152.209 289.579 151.715 286.919C151.107 283.67 150.385 280.421 149.72 277.172C149.663 276.868 149.606 276.545 149.53 276.241C149.34 275.329 149.644 274.626 150.366 274.094C150.575 273.942 150.784 273.79 150.993 273.676C153.786 272.27 156.028 270.199 158.175 267.995C161.006 265.107 163.856 262.219 166.706 259.331C166.725 259.312 166.744 259.293 166.782 259.255C171.95 254.961 176.054 249.66 180.443 244.663C184.832 239.666 188.803 234.346 192.66 228.931C199.5 219.317 206.055 209.494 212.477 199.595C212.914 198.911 213.313 198.17 213.636 197.41C214.434 195.548 215.194 193.667 215.935 191.805C216.106 191.387 216.182 190.931 216.296 190.494C216.22 190.456 216.144 190.418 216.068 190.361C215.802 190.646 215.498 190.912 215.251 191.216C209.931 197.448 204.573 203.642 199.31 209.931C192.565 217.987 185.744 225.986 178.448 233.548C177.973 234.042 177.384 234.422 176.871 234.897C176.073 235.619 175.275 236.341 174.515 237.101C169.689 241.927 164.977 246.886 159.543 251.085C156.693 253.289 153.919 255.607 151.126 257.868C150.727 258.191 150.328 258.495 149.91 258.78C147.725 260.243 145.73 261.953 143.697 263.606C141.569 265.335 139.175 266.722 136.819 268.147C134.767 269.401 132.62 270.484 130.53 271.662C128.155 272.973 125.001 272.403 123.215 270.332C122.018 268.945 121.41 267.33 121.144 265.525C120.65 262.162 120.403 258.799 120.574 255.417C120.612 254.6 120.688 253.783 120.726 252.947C120.726 252.776 120.707 252.586 120.669 252.206C120.251 252.624 119.928 252.909 119.662 253.213C115.653 257.811 111.663 262.447 107.635 267.026C104.747 270.313 101.84 273.543 98.933 276.811C98.553 277.229 98.211 277.685 97.793 278.084C97.299 278.559 96.748 278.977 96.235 279.452C95.722 279.908 95.095 280.307 94.734 280.877C93.461 282.796 91.789 284.354 90.231 286.007C85.728 290.757 81.168 295.469 76.684 300.257C74.879 302.195 73.264 304.323 71.554 306.356C71.06 306.964 70.528 307.534 70.015 308.123C70.11 308.218 70.148 308.294 70.205 308.313C72.314 308.636 74.404 308.845 76.418 307.819C78.166 306.926 79.952 306.109 81.738 305.311C83.923 304.342 85.88 303.031 87.818 301.625C89.3 300.542 90.801 299.497 92.359 298.509C95.038 296.799 97.356 294.633 99.731 292.562C101.631 290.928 103.474 289.237 105.336 287.584C105.659 287.299 105.982 286.957 106.343 286.729C108.737 285.19 110.428 282.967 112.176 280.801C112.651 280.212 113.145 279.642 113.639 279.034C113.924 278.692 114.152 278.73 114.361 279.091C114.779 279.794 115.178 280.516 115.596 281.219C116.546 282.853 117.458 284.525 118.465 286.14C119.947 288.534 121.942 289.256 124.64 288.439C125.305 288.249 125.951 288.04 126.787 287.793L126.806 287.736ZM176.016 141.056C176.054 141.113 176.111 141.151 176.149 141.208C176.035 141.436 175.921 141.664 175.807 141.873C173.983 145.236 172.159 148.599 170.373 151.981C167.713 157.054 165.053 162.127 162.431 167.219C161.424 169.195 160.892 171.285 160.949 173.527C161.12 181.241 168.701 186.789 176.092 184.585C179.398 183.616 181.83 181.583 183.445 178.543C184.148 177.194 184.756 175.807 185.459 174.458C189.487 166.896 193.534 159.334 197.581 151.772C197.657 151.62 197.79 151.487 197.999 151.202C198.531 154.451 199.044 157.491 199.557 160.55C199.804 162.051 199.899 163.59 200.298 165.034C201.476 169.404 205.751 172.292 210.254 171.874C214.814 171.456 218.462 167.827 218.823 163.267C218.918 161.956 218.899 160.588 218.69 159.296C217.816 153.805 216.847 148.314 215.897 142.842C214.624 135.603 212.648 128.535 210.976 121.391C210.349 118.769 208.962 116.622 206.872 114.95C203.471 112.252 199.652 111.587 195.51 112.879C192.242 113.886 188.993 114.912 185.763 116.014C182.628 117.078 179.455 118.104 176.415 119.434C172.615 121.087 168.891 122.93 165.357 125.115C162.602 126.806 159.809 128.421 157.073 130.131C153.425 132.411 151.734 136.249 152.513 140.277C153.425 144.989 157.89 148.295 162.659 147.839C164.445 147.668 166.022 147.041 167.542 146.129C169.385 145.008 171.228 143.887 173.071 142.785C174.059 142.196 175.085 141.607 176.073 141.018L176.016 141.056ZM96.368 239.343C96.501 242.668 97.926 245.252 100.871 246.848C103.892 248.463 106.894 248.273 109.782 246.411C111.283 245.442 112.271 244.017 113.183 242.516C116.527 236.93 119.833 231.306 123.253 225.758C126.654 220.267 130.169 214.852 133.646 209.418C136.534 204.877 139.441 200.355 142.918 196.232C143.146 195.966 143.336 195.681 143.526 195.377C144.742 193.496 145.236 191.463 144.913 189.221C144.229 184.395 139.479 181.07 134.691 182.077C132.449 182.552 130.758 183.844 129.276 185.535C126.749 188.423 124.526 191.558 122.474 194.788C114.095 207.993 105.184 220.894 97.66 234.65C96.862 236.113 96.311 237.652 96.368 239.362V239.343ZM182.4 92.321C182.4 96.387 184.661 99.807 188.29 101.308C191.824 102.771 195.928 101.897 198.702 99.104C199.804 97.983 200.545 96.615 201.229 95.228C203.547 90.516 206.131 85.937 208.829 81.453C212.097 76 215.384 70.566 218.671 65.113C219.032 64.524 219.355 63.897 219.621 63.27C221.236 59.375 220.039 54.758 216.79 52.212C213.332 49.514 208.715 49.438 205.238 51.965C203.737 53.048 202.711 54.511 201.78 56.069C197.543 63.156 193.249 70.205 189.107 77.33C187.131 80.712 185.402 84.246 183.616 87.723C182.856 89.205 182.381 90.763 182.438 92.321H182.4ZM211.375 303.145C211.318 303.012 211.299 302.936 211.261 302.917C211.052 302.784 210.824 302.67 210.615 302.537C208.582 301.397 206.34 300.846 204.155 300.124C199.025 298.433 193.99 296.438 188.765 295.07C186.846 294.576 184.889 294.12 182.932 293.854C180.652 293.569 178.334 293.531 176.035 293.36C175.636 293.322 175.218 293.189 174.876 292.999C172.178 291.498 170.449 288.021 170.848 284.962C171.361 281.124 173.527 278.711 177.175 277.571C179.018 277.001 180.937 276.678 182.875 276.716C184.604 276.735 186.352 276.83 188.081 276.906C188.632 276.925 188.708 276.906 188.594 276.355C188.499 275.823 188.328 275.31 188.214 274.797C186.979 269.42 185.25 264.214 183.331 259.046C183.16 258.571 182.951 258.153 182.495 257.83C181.032 256.766 179.626 255.664 178.182 254.581C177.365 253.973 177.061 253.194 177.232 252.168C177.346 251.465 177.308 250.724 177.308 250.002C177.308 249.869 177.194 249.717 177.137 249.584C177.004 249.679 176.814 249.755 176.738 249.888C176.092 250.895 175.541 251.978 174.819 252.928C172.9 255.398 171 257.887 168.929 260.243C167.428 261.953 165.737 263.492 164.027 264.993C163.001 265.886 162.792 266.057 163.077 267.387C163.685 270.199 164.312 272.992 164.882 275.823C165.281 277.78 165.604 279.737 165.908 281.694C166.231 283.841 166.478 286.007 166.801 288.173C167.2 290.7 167.808 293.189 167.884 295.773C167.922 296.875 168.131 297.977 168.34 299.06C168.568 300.181 168.853 300.39 169.955 300.371C175.617 300.219 181.279 300.58 186.941 300.77C188.461 300.827 189.981 300.827 191.482 300.979C195.13 301.359 198.759 301.834 202.407 302.252C204.896 302.537 207.366 302.765 209.855 303.012C210.349 303.069 210.843 303.126 211.375 303.183V303.145ZM131.898 244.302C131.898 248.919 135.869 252.054 140.182 250.933C142.31 250.382 143.773 248.976 144.685 247.019C145.502 245.233 146.281 243.447 147.079 241.642C152.133 230.261 157.187 218.88 162.26 207.499C162.811 206.245 163.077 204.972 162.754 203.623C162.184 201.229 160.911 199.348 158.498 198.569C155.971 197.752 153.634 198.208 151.639 200.089C150.689 200.982 150.138 202.122 149.625 203.281C147.44 208.221 145.236 213.161 143.051 218.101C139.536 226.005 136.021 233.928 132.506 241.832C132.145 242.649 131.86 243.485 131.917 244.283L131.898 244.302ZM319.637 59.318C319.637 59.261 319.656 59.223 319.675 59.166C319.029 58.881 318.383 58.558 317.718 58.33C313.709 56.886 309.719 55.423 305.786 53.77C301.549 51.984 297.217 50.407 292.942 48.697C289.313 47.234 285.722 45.657 282.093 44.213C278.844 42.921 275.576 41.648 272.27 40.489C269.762 39.615 270.104 39.634 267.976 41.382C267.843 41.496 267.729 41.667 267.615 41.8C267.786 41.895 267.957 42.047 268.147 42.104C270.807 42.902 273.467 43.7 276.146 44.46C276.906 44.669 277.514 45.087 278.065 45.619C279.034 46.569 279.338 47.747 278.844 49.02C278.35 50.35 277.286 51.129 275.861 51.148C275.101 51.148 274.303 50.92 273.543 50.711C271.928 50.255 270.351 49.723 268.736 49.267C266.342 48.602 263.929 47.956 261.516 47.329C261.326 47.272 261.003 47.329 260.851 47.481C258.989 49.191 257.146 50.92 255.322 52.687C254.942 53.048 254.657 53.523 254.334 53.96C254.106 54.264 254.258 54.416 254.581 54.435C255.398 54.511 256.215 54.568 257.032 54.625C259.008 54.758 261.003 54.891 262.979 55.043C266.133 55.29 269.268 55.537 272.422 55.784C273.391 55.86 274.379 55.936 275.348 56.012C277.457 56.183 279.566 56.373 281.675 56.544C283.632 56.696 285.589 56.81 287.527 56.962C289.503 57.114 291.479 57.323 293.474 57.475C295.526 57.627 297.578 57.741 299.611 57.893C302.784 58.14 305.976 58.387 309.149 58.634C310.099 58.71 311.03 58.786 311.98 58.862C314.412 59.052 316.825 59.242 319.257 59.413C319.371 59.413 319.485 59.394 319.58 59.375L319.637 59.318ZM232.503 84.968C232.465 84.436 232.465 83.885 232.37 83.372C231.591 79.439 229.292 76.798 225.435 75.772C221.597 74.746 218.291 75.905 215.707 78.869C213.712 81.168 212.192 83.809 210.881 86.564C209.988 88.445 209.779 90.44 210.197 92.492C211.071 96.862 215.118 100.187 219.507 100.073C223.098 99.978 225.853 98.382 227.772 95.342C228.855 93.594 229.938 91.865 231.021 90.117C231.99 88.54 232.522 86.849 232.522 84.987L232.503 84.968ZM238.051 28.671C237.804 28.861 237.481 29.032 237.253 29.279C236.265 30.438 235.315 31.616 234.365 32.794C233.7 33.611 233.054 34.428 232.389 35.226C232.142 35.53 232.123 35.777 232.503 35.986C232.674 36.081 232.826 36.176 232.997 36.271C238.393 39.615 243.808 42.959 249.204 46.303C250.002 46.797 250.002 46.797 250.629 46.018C252.263 43.966 253.897 41.914 255.55 39.881C256.139 39.159 256.158 39.14 255.322 38.627C251.465 36.214 247.608 33.801 243.713 31.426C242.44 30.647 241.11 30.001 239.78 29.317C239.286 29.051 238.716 28.899 238.051 28.652V28.671ZM257.108 59.584C257.108 59.603 257.108 59.641 257.108 59.66C256.595 59.66 256.101 59.641 255.588 59.66C255.474 59.66 255.265 59.907 255.284 59.983C255.493 60.724 255.531 61.503 256.253 62.073C257.146 62.757 257.545 63.764 257.64 64.885C257.716 65.74 257.773 66.576 257.83 67.431C257.849 67.792 257.906 68.058 258.362 68.02C260.338 67.83 262.314 67.678 264.29 67.431C266.323 67.184 268.337 66.861 270.37 66.557C272.973 66.158 275.595 65.702 278.198 65.284C280.345 64.942 282.492 64.581 284.639 64.277C286.862 63.973 289.085 63.726 291.308 63.46C291.935 63.384 292.562 63.365 293.189 63.27C293.322 63.251 293.436 63.061 293.569 62.947C293.455 62.871 293.341 62.719 293.208 62.7C292.866 62.662 292.505 62.7 292.163 62.662C289.085 62.415 286.007 62.168 282.929 61.921C282.055 61.845 281.162 61.769 280.288 61.693C278.16 61.522 276.013 61.332 273.885 61.161C272.118 61.028 270.351 60.933 268.603 60.743C266.095 60.458 263.625 59.869 261.098 60.021C260.946 60.021 260.775 60.021 260.623 59.983C259.464 59.85 258.305 59.717 257.165 59.584H257.108Z" fill="#E05F26"/>
</svg>
