<svg width="80" height="77" viewBox="0 0 80 77" fill="none" xmlns="http://www.w3.org/2000/svg">
<path d="M20.558 38.5286C20.558 29.4213 20.5572 20.3139 20.558 11.2065C20.5584 7.62229 23.0024 5.29299 26.7628 5.29261C35.04 5.29146 43.3172 5.29146 51.5944 5.29261C55.3856 5.29299 57.808 7.62267 57.808 11.2702C57.8088 29.4849 57.8092 47.6997 57.808 65.9144C57.808 69.5435 55.3712 71.8644 51.5648 71.8648C43.312 71.8659 35.0588 71.818 26.8068 71.8862C23.018 71.9173 20.4884 69.135 20.5236 65.8503C20.6224 56.7441 20.5576 47.636 20.5576 38.5286H20.558ZM23.3784 38.5846C23.3784 47.692 23.3776 56.7994 23.3788 65.9063C23.3788 67.9894 24.5492 69.122 26.7184 69.1228C35.02 69.1266 43.3216 69.1262 51.6232 69.1228C53.8332 69.122 54.9876 67.9974 54.9876 65.8576C54.9884 47.6663 54.9884 29.4754 54.9876 11.284C54.9876 9.14919 53.8308 8.03422 51.6092 8.03345C43.332 8.03115 35.0548 8.03115 26.7776 8.03345C24.5108 8.03422 23.3784 9.13654 23.3784 11.3327C23.378 20.4167 23.3784 29.5007 23.3784 38.5846Z" fill="#E05F26"/>
<path d="M39.186 11.8961C40.2576 11.8961 41.3292 11.8885 42.4008 11.8984C43.3976 11.9076 44.0128 12.4197 44.0308 13.2313C44.0488 14.0498 43.4548 14.6166 42.4688 14.6266C40.2772 14.6485 38.0852 14.6485 35.8936 14.6266C34.9084 14.6166 34.3152 14.0467 34.3364 13.227C34.3576 12.4162 34.9724 11.9076 35.9712 11.8988C37.0428 11.8892 38.1144 11.8965 39.186 11.8965V11.8961Z" fill="#E05F26"/>
</svg>
